<svg height="512pt" viewBox="-41 0 512 512" width="512pt" xmlns="http://www.w3.org/2000/svg"><path d="m422.871094 288.085938c-8.972656-18.746094-24.710938-32.855469-44.324219-39.730469l-28.0625-9.835938v-119.488281c0-18.691406-15.210937-33.902344-33.902344-33.902344h-32.617187l-9.589844-72.105468c-.992188-7.457032-7.347656-13.023438-14.867188-13.023438h-88.503906c-7.523437 0-13.878906 5.566406-14.871094 13.023438l-9.585937 72.105468h-32.617187c-18.695313 0-33.90625 15.210938-33.90625 33.902344v119.488281l-28.0625 9.835938c-19.609376 6.871093-35.351563 20.980469-44.320313 39.726562-8.96875 18.746094-10.082031 39.855469-3.128906 59.4375l54.835937 154.496094c2.125 5.984375 7.785156 9.984375 14.136719 9.984375h283.542969c6.351562 0 12.011718-4 14.136718-9.984375l54.835938-154.496094c6.949219-19.582031 5.839844-40.691406-3.128906-59.433593zm-238.730469-258.085938h62.230469l7.328125 55.128906h-76.890625zm-70.210937 85.128906h202.652343c2.148438 0 3.902344 1.75 3.902344 3.902344v27.375h-210.460937v-27.375c0-2.152344 1.75-3.902344 3.90625-3.902344zm-3.90625 61.277344h210.460937v51.597656l-79.566406-27.886718c-8.101563-2.839844-16.597657-4.277344-25.105469-4.339844-.1875-.007813-.371094-.027344-.558594-.027344s-.367187.019531-.554687.027344c-8.507813.0625-17.007813 1.5-25.105469 4.339844l-79.566406 27.886718v-51.597656zm-75.320313 124.625c5.5-11.496094 15.152344-20.148438 27.179687-24.367188l137.632813-48.238281c.246094-.082031.492187-.15625.738281-.238281v173.101562h-144.824218l-22.648438-63.808593c-4.261719-12.007813-3.582031-24.953125 1.921875-36.449219zm31.375 130.261719h134.175781v50.707031h-116.179687zm280.355469 50.707031h-116.179688v-50.707031h134.175782zm51.292968-144.515625-22.648437 63.808594h-144.824219v-173.105469c.246094.082031.496094.15625.738282.242188l137.632812 48.238281c12.027344 4.214843 21.679688 12.867187 27.183594 24.363281 5.5 11.496094 6.179687 24.441406 1.917968 36.453125zm0 0"/></svg>