<svg id="Capa_1" enable-background="new 0 0 512 512" height="512" viewBox="0 0 512 512" width="512" xmlns="http://www.w3.org/2000/svg"><path d="m512 367.345v-83.841l-177.766-125.496 5.562-66.965c1.94-23.362-6.052-46.653-21.927-63.902-15.876-17.248-38.427-27.141-61.869-27.141s-45.993 9.893-61.869 27.142c-15.875 17.249-23.867 40.54-21.927 63.902l5.562 66.965-177.766 125.495v83.841l191.195-47.638 4.428 53.318-75.623 29.681v79.27h84.672l2.494 30.024h97.668l2.494-30.024h84.672v-79.27l-75.624-29.682 4.428-53.318zm-30-68.297v29.906l-158.68-39.537 8.033-96.719zm-452 29.906v-29.906l150.647-106.35 8.033 96.719zm120 123.022v-28.817l48.216-18.924 3.965 47.741zm84.777 30.024-32.676-393.439c-1.266-15.248 3.743-29.845 14.104-41.103s24.494-17.458 39.795-17.458 29.434 6.2 39.795 17.458 15.37 25.855 14.104 41.103l-32.676 393.439zm127.223-58.841v28.817h-52.181l3.965-47.741z"/></svg>