<?xml version="1.0" encoding="iso-8859-1"?>
<!-- Generator: Adobe Illustrator 19.0.0, SVG Export Plug-In . SVG Version: 6.00 Build 0)  -->
<svg version="1.1" id="Capa_1" xmlns="http://www.w3.org/2000/svg" xmlns:xlink="http://www.w3.org/1999/xlink" x="0px" y="0px"
	 viewBox="0 0 512 512" style="enable-background:new 0 0 512 512;" xml:space="preserve">
<g>
	<g>
		<path d="M445.938,356.91l-7.32-4.363c-41.062-24.475-35.826-96.063-35.755-96.957l0.051-0.605V220.42
			c0.065-4.782,0.207-75.054-45.07-121.166c-13.145-13.387-28.675-23.322-46.449-29.771V0H200.604v69.803
			c-17.411,6.455-32.651,16.282-45.582,29.451c-45.257,46.092-45.135,116.323-45.07,121.16v33.94l0.051,1.233
			c0.059,0.726,5.387,72.816-36.066,97.152c-0.216,0.127-0.429,0.258-0.685,0.418l-7.191,4.385v88.805h120.026
			C188.375,482.932,218.849,512,256,512s67.625-29.068,69.911-65.652h120.027L445.938,356.91L445.938,356.91z M230.604,30
			L230.604,30h50.792v32.203c-7.813-1.066-15.948-1.611-24.41-1.611c-0.177,0-0.35,0.003-0.552,0.007
			c-0.183-0.004-0.366-0.007-0.553-0.007c-8.775,0-17.2,0.583-25.277,1.729V30z M139.953,253.784v-33.479l-0.002-0.246
			c-0.009-0.619-0.467-62.303,36.607-99.917c19.316-19.598,45.987-29.538,79.274-29.548c0.394,0.009,0.758,0.011,1.238-0.001
			c33.271,0.017,59.931,9.958,79.239,29.549c37.074,37.614,36.616,99.299,36.607,99.889l-0.002,33.755
			c-0.474,6.647-2.905,53.01,17.788,90.192H122.177C142.862,306.796,140.429,260.434,139.953,253.784z M256,482
			c-20.601,0-37.62-15.629-39.824-35.652h79.647C293.62,466.371,276.601,482,256,482z M415.938,416.348H96.063v-42.279
			c0.041-0.03,0.08-0.061,0.121-0.091h319.755V416.348z"/>
	</g>
</g>
<g>
</g>
<g>
</g>
<g>
</g>
<g>
</g>
<g>
</g>
<g>
</g>
<g>
</g>
<g>
</g>
<g>
</g>
<g>
</g>
<g>
</g>
<g>
</g>
<g>
</g>
<g>
</g>
<g>
</g>
</svg>
