<svg xmlns="http://www.w3.org/2000/svg" xmlns:xlink="http://www.w3.org/1999/xlink" width="16" height="16" viewBox="0 0 16 16"><defs><style>.a{fill:none;}.b{clip-path:url(#a);}.c{fill:red;}</style><clipPath id="a"><rect class="a" width="16" height="16"/></clipPath></defs><g class="b"><path class="c" d="M8,0a8,8,0,1,0,8,8A8,8,0,0,0,8,0ZM8,14.5A6.5,6.5,0,1,1,14.5,8,6.5,6.5,0,0,1,8,14.5ZM8,3.508c-.573,0-1.007.3-1.007.782V8.72c0,.483.433.782,1.007.782s1.007-.31,1.007-.782V4.29C9.007,3.819,8.56,3.508,8,3.508ZM8,10.5a1,1,0,1,0,1,1A1,1,0,0,0,8,10.5Z"/></g></svg>