<svg xmlns="http://www.w3.org/2000/svg" xmlns:xlink="http://www.w3.org/1999/xlink" width="15.256" height="16" viewBox="0 0 15.256 16"><defs><style>.a{fill:none;}.b{clip-path:url(#a);}</style><clipPath id="a"><rect class="a" width="15.256" height="16"/></clipPath></defs><g class="b"><g transform="translate(0 0)"><path d="M18.948,16A4.022,4.022,0,0,1,16.1,9.133L24.376.86a2.945,2.945,0,0,1,4.165,4.165l-7.633,7.632-.1.09a1.662,1.662,0,0,1-2.339-.008l-.015-.015a1.659,1.659,0,0,1,0-2.344l3.965-3.965a.4.4,0,0,1,.559.559l-3.965,3.965a.868.868,0,0,0,0,1.229l.015.016a.869.869,0,0,0,1.225,0l7.726-7.714A2.154,2.154,0,0,0,24.935,1.42L16.662,9.692a3.233,3.233,0,1,0,4.572,4.572l8.272-8.273a.4.4,0,0,1,.559.559l-8.272,8.273A4.011,4.011,0,0,1,18.948,16Z" transform="translate(-14.926 0)"/></g></g></svg>