<svg xmlns="http://www.w3.org/2000/svg" width="104.401" height="60.456" viewBox="0 0 104.401 60.456">
  <g id="marlow_logo" data-name="marlow logo" transform="translate(799.201 -66.056)">
    <path id="Path_243" data-name="Path 243" d="M-355.068,265.441" transform="translate(-362.231 -162.622)" fill="#243c98" opacity="0.8"/>
    <path id="Path_244" data-name="Path 244" d="M-342.425,213.889" transform="translate(-372.543 -120.576)" fill="#243c98" opacity="0.8"/>
    <path id="Path_245" data-name="Path 245" d="M-337.56,209.147" transform="translate(-376.51 -116.708)" fill="#243c98" opacity="0.8"/>
    <path id="Path_246" data-name="Path 246" d="M-709.663,198.224a.111.111,0,0,1-.086-.04.11.11,0,0,1-.024-.092l4.766-24.852a.7.7,0,0,0-.3-.55,2.455,2.455,0,0,0-1.443-.479,2.171,2.171,0,0,0-.959.219l-.024.012c-.28.138-.8.4-.9.784-.173.931-4.852,24.907-4.852,24.907a.112.112,0,0,1-.11.091H-790.43a.112.112,0,0,1-.086-.04.112.112,0,0,1-.024-.093l2.244-11.55a.112.112,0,0,1,.11-.09c6.029,0,12.367,0,18.421,0h22.671c6.319,0,12.369,0,18.662,0l4.375-22.432a.112.112,0,0,1,.11-.091h17.021a.111.111,0,0,1,.086.04.111.111,0,0,1,.024.092l-.8,3.762a35.974,35.974,0,0,1,11.068-3.287c5.421-.527,8.6,1.745,8.806,5.246a13.873,13.873,0,0,1-.3,2.509l-5.067,25.828a.112.112,0,0,1-.11.091l-16.447.021Z" transform="translate(-7.063 -79.821)" fill="#005aa5"/>
    <g id="Group_392" data-name="Group 392" transform="translate(-799.201 120.702)">
      <path id="Path_247" data-name="Path 247" d="M-794.915,368.41l.844-4.341-2.234,3.442h-.522l-.92-3.442-.844,4.341h-.61l1.111-5.713h.61l1.074,4.052,2.6-4.052h.61l-1.111,5.713Z" transform="translate(799.201 -362.649)" fill="#005aa5"/>
      <path id="Path_248" data-name="Path 248" d="M-756.185,368.41l-.206-1.292h-2.5l-.708,1.292h-.65l3.213-5.713h.513l.984,5.713Zm-.753-4.838-1.662,3.017h2.134Z" transform="translate(767.43 -362.649)" fill="#005aa5"/>
      <path id="Path_249" data-name="Path 249" d="M-719.011,368.41l-.807-2.536h-1.372l-.493,2.536h-.61l1.111-5.713h2.191a1.248,1.248,0,0,1,1.385,1.588,1.9,1.9,0,0,1-1.542,1.532l.852,2.592Zm-.143-5.167h-1.525l-.407,2.094h1.525a1.263,1.263,0,0,0,1.342-1.043C-718.083,363.6-718.488,363.243-719.154,363.243Z" transform="translate(736.475 -362.649)" fill="#005aa5"/>
      <path id="Path_250" data-name="Path 250" d="M-686.341,368.41l1.111-5.713h.61l-1,5.167h2.922l-.106.546Z" transform="translate(707.153 -362.649)" fill="#005aa5"/>
      <path id="Path_251" data-name="Path 251" d="M-653.205,367.65a2.444,2.444,0,0,1-1.576.594,1.66,1.66,0,0,1-1.345-.594c-.433-.537-.324-1.1-.089-2.311s.345-1.773.987-2.31a2.444,2.444,0,0,1,1.576-.594,1.66,1.66,0,0,1,1.345.594c.433.537.324,1.1.088,2.31S-652.563,367.113-653.205,367.65Zm.355-4.26a1.131,1.131,0,0,0-.908-.409,1.673,1.673,0,0,0-1.066.409c-.433.369-.548.754-.781,1.95s-.267,1.581.022,1.95a1.13,1.13,0,0,0,.907.409,1.673,1.673,0,0,0,1.067-.409c.433-.369.548-.754.78-1.95S-652.561,363.759-652.85,363.39Z" transform="translate(682.751 -362.435)" fill="#005aa5"/>
      <path id="Path_252" data-name="Path 252" d="M-616.1,368.41h-.57l-.379-4.573-2.157,4.573h-.57l-.35-5.713h.65l.22,4.605,2.155-4.605h.546l.364,4.605,2.011-4.605h.65Z" transform="translate(653.147 -362.649)" fill="#005aa5"/>
      <path id="Path_253" data-name="Path 253" d="M-559.435,368.41l-2.143-4.581-.891,4.581h-.61l1.111-5.713h.578l2.146,4.565.888-4.565h.61l-1.111,5.713Z" transform="translate(606.622 -362.649)" fill="#005aa5"/>
      <path id="Path_254" data-name="Path 254" d="M-523.719,368.41l-.207-1.292h-2.5l-.708,1.292h-.65l3.213-5.713h.513l.984,5.713Zm-.753-4.838-1.662,3.017H-524Z" transform="translate(577.832 -362.649)" fill="#005aa5"/>
      <path id="Path_255" data-name="Path 255" d="M-489.721,368.41h-.5l-.767-5.713h.642l.586,4.621,2.383-4.621h.642Z" transform="translate(547.824 -362.649)" fill="#005aa5"/>
      <path id="Path_256" data-name="Path 256" d="M-461.709,368.41l1.111-5.713h.61l-1.111,5.713Z" transform="translate(523.945 -362.649)" fill="#005aa5"/>
      <path id="Path_257" data-name="Path 257" d="M-438.028,367.586a2.479,2.479,0,0,1-1.653.658,1.67,1.67,0,0,1-1.345-.594c-.433-.537-.324-1.1-.089-2.311s.345-1.773.987-2.31a2.443,2.443,0,0,1,1.576-.594,1.546,1.546,0,0,1,1.666,1.709h-.61a1.088,1.088,0,0,0-1.162-1.163,1.674,1.674,0,0,0-1.067.409c-.433.369-.548.754-.78,1.95s-.269,1.589.021,1.958a1.128,1.128,0,0,0,.909.4,1.7,1.7,0,0,0,1.178-.489,1.822,1.822,0,0,0,.522-1.035l.084-.433h-1.4l.1-.538h2.014l-.176.907A2.418,2.418,0,0,1-438.028,367.586Z" transform="translate(507.318 -362.435)" fill="#005aa5"/>
      <path id="Path_258" data-name="Path 258" d="M-408.2,368.41l-.207-1.292h-2.5l-.708,1.292h-.65l3.213-5.713h.514l.984,5.713Zm-.753-4.838-1.662,3.017h2.135Z" transform="translate(483.619 -362.649)" fill="#005aa5"/>
      <path id="Path_259" data-name="Path 259" d="M-373.913,363.243l-1,5.167h-.61l1-5.167h-1.653l.106-.546h3.916l-.106.546Z" transform="translate(454.185 -362.649)" fill="#005aa5"/>
      <path id="Path_260" data-name="Path 260" d="M-348.5,368.41l1.111-5.713h.61l-1.111,5.713Z" transform="translate(431.615 -362.649)" fill="#005aa5"/>
      <path id="Path_261" data-name="Path 261" d="M-326.2,367.65a2.444,2.444,0,0,1-1.576.594,1.66,1.66,0,0,1-1.345-.594c-.433-.537-.324-1.1-.089-2.311s.345-1.773.987-2.31a2.443,2.443,0,0,1,1.576-.594,1.661,1.661,0,0,1,1.345.594c.433.537.324,1.1.088,2.31S-325.56,367.113-326.2,367.65Zm.355-4.26a1.131,1.131,0,0,0-.908-.409,1.672,1.672,0,0,0-1.066.409c-.433.369-.548.754-.781,1.95s-.267,1.581.022,1.95a1.129,1.129,0,0,0,.907.409,1.673,1.673,0,0,0,1.067-.409c.433-.369.548-.754.78-1.95S-325.558,363.759-325.848,363.39Z" transform="translate(416.051 -362.435)" fill="#005aa5"/>
      <path id="Path_262" data-name="Path 262" d="M-290.039,368.41l-2.143-4.581-.891,4.581h-.61l1.111-5.713h.578l2.146,4.565.888-4.565h.61l-1.111,5.713Z" transform="translate(386.905 -362.649)" fill="#005aa5"/>
    </g>
    <g id="Group_393" data-name="Group 393" transform="translate(-794.983 66.056)">
      <path id="Path_263" data-name="Path 263" d="M-769.765,106.9c-1.718,0-3.477,0-4.044,0l7.455-38.342h17.481c-.179.865-.431,2.109-.622,3.159l-.145.8.758-.28c.3-.11,6.5-2.118,9.834-2.751a19.909,19.909,0,0,1,3.666-.385c3.524,0,5.512,1.19,5.91,3.537l.116.682.585-.369c1.29-.815,7.131-3.857,12.131-3.857h0c.147,0,.293,0,.438.009,3.552.152,5.61,1.183,6.294,3.153a6.991,6.991,0,0,1-.036,2.7c-.25,1.277-6.106,31.153-6.253,31.929l-16.406.013,5.637-28.825V78.02a.9.9,0,0,0-.391-.681,2.288,2.288,0,0,0-1.241-.334,3.635,3.635,0,0,0-1.266.243l-.025.009-.024.012a1.241,1.241,0,0,0-.626.715l-.006.027c-.187,1.005-5.467,28.139-5.612,28.885H-752.8l5.593-28.739v-.041a.9.9,0,0,0-.39-.683,2.52,2.52,0,0,0-1.366-.391,3.115,3.115,0,0,0-1.087.2l-.025.009-.024.013a1.24,1.24,0,0,0-.626.715l-.006.027c-.193,1.033-.382,1.969-.563,2.782l-5.043,26.1C-756.714,106.9-764.769,106.9-769.765,106.9Z" transform="translate(774.273 -68.095)" fill="#fff"/>
      <path id="Path_264" data-name="Path 264" d="M-751.491,66.978c-.163.8-.356,1.77-.51,2.615l-.284,1.581,1.51-.551c.315-.115,6.473-2.107,9.76-2.731a19.46,19.46,0,0,1,3.581-.377c2.071,0,3.581.426,4.487,1.266a3.184,3.184,0,0,1,.968,1.887l.232,1.363,1.17-.738c1.267-.8,7-3.786,11.886-3.786.142,0,.283,0,.418.009a10.315,10.315,0,0,1,4,.822,3.467,3.467,0,0,1,1.879,2.022,6.531,6.531,0,0,1-.052,2.454c-.238,1.211-5.487,27.989-6.182,31.561l-15.466.012,5.521-28.234.016-.084v-.085a1.361,1.361,0,0,0-.6-1.067l-.009-.006-.009-.006a2.738,2.738,0,0,0-1.48-.4,4.1,4.1,0,0,0-1.427.272l-.051.019-.048.025a1.682,1.682,0,0,0-.863,1.014l-.007.027-.005.027c-.177.947-4.885,25.149-5.538,28.508h-15.69l5.464-28.151.016-.08v-.082a1.356,1.356,0,0,0-.594-1.071l-.01-.007-.01-.006a2.972,2.972,0,0,0-1.6-.457,3.572,3.572,0,0,0-1.248.233l-.051.019-.048.025a1.681,1.681,0,0,0-.863,1.014l-.007.027,0,.027c-.192,1.027-.38,1.958-.56,2.766l0,.013,0,.013-4.969,25.716c-1.705,0-8.592,0-13.046,0H-775.3l7.276-37.421h16.536m.584-.922h-17.512a.446.446,0,0,0-.437.359l-7.461,38.372a.447.447,0,0,0,.092.37.446.446,0,0,0,.344.163c.546,0,2.326,0,4.063,0,5.116,0,13.439,0,13.439,0h0a.447.447,0,0,0,.438-.359l5.043-26.1c.183-.818.373-1.76.567-2.8.062-.249.389-.417.389-.417a2.656,2.656,0,0,1,.927-.175,2.048,2.048,0,0,1,1.108.312.464.464,0,0,1,.187.293l-5.572,28.708a.446.446,0,0,0,.092.368.466.466,0,0,0,.347.173H-738.2a.447.447,0,0,0,.438-.36s5.423-27.874,5.615-28.9c.062-.249.389-.416.389-.416a3.2,3.2,0,0,1,1.105-.214,1.817,1.817,0,0,1,.984.256.464.464,0,0,1,.188.294l-5.632,28.8a.446.446,0,0,0,.094.369.446.446,0,0,0,.344.162h0l16.437-.013a.447.447,0,0,0,.439-.367c.06-.336,6.255-31.938,6.255-31.938a7.676,7.676,0,0,0,.018-2.933c-.808-2.329-3.21-3.313-6.709-3.463-.151-.006-.3-.01-.458-.01-5.251,0-11.263,3.224-12.379,3.928-.2-1.2-1.009-3.92-6.364-3.92h0a20.22,20.22,0,0,0-3.752.393c-3.364.639-9.582,2.651-9.907,2.772.21-1.157.494-2.541.623-3.166a.446.446,0,0,0-.091-.372.447.447,0,0,0-.346-.164Z" transform="translate(776.326 -66.056)" fill="#005aa5"/>
    </g>
  </g>
</svg>
