<svg height="512pt" viewBox="0 0 512 512" width="512pt" xmlns="http://www.w3.org/2000/svg"><path d="m256 504.5c-66.378906 0-128.78125-25.847656-175.714844-72.785156-46.9375-46.933594-72.785156-109.335938-72.785156-175.714844s25.847656-128.78125 72.785156-175.714844c46.933594-46.9375 109.335938-72.785156 175.714844-72.785156s128.78125 25.847656 175.714844 72.785156c46.9375 46.933594 72.785156 109.335938 72.785156 175.714844s-25.847656 128.78125-72.785156 175.714844c-46.933594 46.9375-109.335938 72.785156-175.714844 72.785156zm0 0" fill="#c28a46"/><path d="m431.714844 80.285156c-46.933594-46.9375-109.335938-72.785156-175.714844-72.785156-5.53125 0-11.03125.195312-16.5.550781 60.164062 3.917969 116.191406 29.207031 159.214844 72.230469 46.9375 46.9375 72.785156 109.339844 72.785156 175.71875s-25.847656 128.78125-72.785156 175.714844c-43.023438 43.023437-99.050782 68.3125-159.214844 72.230468 5.46875.359376 10.96875.554688 16.5.554688 66.378906 0 128.78125-25.851562 175.714844-72.785156 46.9375-46.933594 72.785156-109.335938 72.785156-175.714844s-25.847656-128.78125-72.785156-175.714844zm0 0" fill="#ad7b3e"/><path d="m461.945312 256c0 113.742188-92.203124 205.945312-205.945312 205.945312s-205.945312-92.203124-205.945312-205.945312 92.203124-205.945312 205.945312-205.945312 205.945312 92.203124 205.945312 205.945312zm0 0" fill="#faeccb"/><path d="m288.621094 288.621094-136.566406 71.324218 71.324218-136.566406 136.566406-71.324218zm0 0" fill="#ff7566"/><path d="m314.613281 175.730469-47.992187 91.890625-91.234375 47.648437-23.332031 44.675781 136.566406-71.324218 71.324218-136.566406zm0 0" fill="#ff5542"/><path d="m223.378906 223.378906 65.242188 65.242188 71.324218-136.566406zm0 0" fill="#9ad5fc"/><path d="m314.570312 175.753906-47.625 91.191406 21.675782 21.675782 71.324218-136.566406zm0 0" fill="#6fc4fc"/><path d="m95.828125 256-25.628906-25.046875h-18.625c-.996094 8.210937-1.519531 16.566406-1.519531 25.046875s.523437 16.835938 1.519531 25.046875h18.625zm0 0" fill="#ffd573"/><path d="m460.425781 230.953125h-18.625l-25.628906 25.046875 25.628906 25.046875h18.625c.996094-8.210937 1.519531-16.566406 1.519531-25.046875s-.523437-16.835938-1.519531-25.046875zm0 0" fill="#ffd573"/><path d="m256 95.828125 25.046875-25.628906v-18.625c-8.210937-.996094-16.566406-1.519531-25.046875-1.519531s-16.835938.523437-25.046875 1.519531v18.625zm0 0" fill="#ffd573"/><path d="m256 416.171875-25.046875 25.628906v18.625c8.210937.996094 16.566406 1.519531 25.046875 1.519531s16.835938-.523437 25.046875-1.519531v-18.625zm0 0" fill="#ffd573"/><g fill="#060606"><path d="m152.058594 367.445312c1.179687 0 2.371094-.28125 3.46875-.851562l136.566406-71.324219c1.359375-.707031 2.46875-1.816406 3.175781-3.175781l20.378907-39.019531c4.476562-8.574219-8.820313-15.519531-13.296876-6.941407l-15.648437 29.964844-50.800781-50.800781 106.332031-55.53125-17.632813 33.765625c-4.480468 8.574219 8.816407 15.515625 13.296876 6.941406l28.695312-54.945312c3.265625-6.25-3.757812-13.441406-10.121094-10.121094l-136.566406 71.324219c-1.359375.707031-2.46875 1.816406-3.175781 3.175781l-71.324219 136.566406c-2.527344 4.839844 1.21875 10.972656 6.652344 10.972656zm73.238281-131.542968 50.800781 50.800781-106.332031 55.53125zm0 0"/><path d="m437.019531 74.980469c-48.351562-48.351563-112.640625-74.980469-181.019531-74.980469-31.277344 0-61.777344 5.53125-90.652344 16.445312-9.046875 3.417969-3.742187 17.457032 5.304688 14.03125 27.171875-10.269531 55.886718-15.476562 85.347656-15.476562 64.375 0 124.894531 25.066406 170.414062 70.585938 45.519532 45.519531 70.585938 106.039062 70.585938 170.414062s-25.066406 124.894531-70.585938 170.414062c-45.519531 45.519532-106.039062 70.585938-170.414062 70.585938s-124.894531-25.066406-170.414062-70.585938c-45.519532-45.519531-70.585938-106.039062-70.585938-170.414062s25.066406-124.894531 70.585938-170.414062c13.441406-13.4375 28.363281-25.246094 44.347656-35.09375 8.238281-5.078126.367187-17.847657-7.867188-12.773438-16.980468 10.460938-32.820312 22.996094-47.085937 37.261719-48.351563 48.351562-74.980469 112.640625-74.980469 181.019531s26.628906 132.667969 74.980469 181.019531c48.351562 48.351563 112.640625 74.980469 181.019531 74.980469s132.667969-26.628906 181.019531-74.980469c48.351563-48.351562 74.980469-112.640625 74.980469-181.019531s-26.628906-132.667969-74.980469-181.019531zm0 0"/><path d="m42.554688 256c0 117.695312 95.75 213.445312 213.445312 213.445312s213.445312-95.75 213.445312-213.445312-95.75-213.445312-213.445312-213.445312-213.445312 95.75-213.445312 213.445312zm15 0c0-5.914062.273437-11.761719.785156-17.546875h8.804687l17.953125 17.546875-17.953125 17.546875h-8.804687c-.511719-5.785156-.785156-11.632813-.785156-17.546875zm180.898437 197.660156v-8.804687l17.546875-17.953125 17.546875 17.953125v8.804687c-5.785156.511719-11.632813.785156-17.546875.785156s-11.761719-.273437-17.546875-.785156zm215.992187-197.660156c0 5.914062-.273437 11.761719-.785156 17.546875h-8.804687l-17.953125-17.546875 17.953125-17.546875h8.804687c.511719 5.785156.785156 11.632813.785156 17.546875zm-180.898437-197.660156v8.804687l-17.546875 17.953125-17.546875-17.953125v-8.804687c5.785156-.511719 11.632813-.785156 17.546875-.785156s11.761719.273437 17.546875.785156zm-50.09375 1.898437v9.960938c0 1.957031.769531 3.839843 2.136719 5.242187l25.046875 25.625c2.902343 2.972656 7.824219 2.972656 10.726562 0l25.046875-25.625c1.367188-1.402344 2.136719-3.285156 2.136719-5.242187v-9.960938c83.398437 13.816407 149.394531 79.816407 163.214844 163.214844h-9.960938c-1.960937 0-3.839843.769531-5.242187 2.136719l-25.628906 25.046875c-2.96875 2.902343-2.96875 7.824219 0 10.726562l25.628906 25.042969c1.402344 1.371094 3.28125 2.136719 5.242187 2.136719h9.960938c-13.820313 83.402343-79.816407 149.398437-163.214844 163.21875v-9.960938c0-1.960937-.769531-3.84375-2.136719-5.242187l-25.046875-25.628906c-2.902343-2.96875-7.824219-2.96875-10.726562 0l-25.046875 25.628906c-1.367188 1.398437-2.136719 3.28125-2.136719 5.242187v9.960938c-83.398437-13.820313-149.394531-79.816407-163.214844-163.21875h9.960938c1.960937 0 3.839843-.765625 5.242187-2.136719l25.628906-25.042969c2.96875-2.902343 2.96875-7.824219 0-10.726562l-25.628906-25.046875c-1.402344-1.371094-3.28125-2.136719-5.242187-2.136719h-9.960938c13.816407-83.398437 79.816407-149.398437 163.214844-163.214844zm0 0"/><path d="m380.925781 138.058594c9.652344 0 9.667969-15 0-15-9.652343 0-9.667969 15 0 15zm0 0"/><path d="m131.074219 373.941406c-9.652344 0-9.667969 15 0 15 9.652343 0 9.667969-15 0-15zm0 0"/><path d="m381.441406 373.425781c-9.652344 0-9.667968 15 0 15 9.652344 0 9.667969-15 0-15zm0 0"/><path d="m130.558594 138.574219c9.652344 0 9.667968-15 0-15-9.652344 0-9.667969 15 0 15zm0 0"/><path d="m415.296875 186.25c9.648437 0 9.667969-15 0-15-9.652344 0-9.667969 15 0 15zm0 0"/><path d="m96.703125 325.75c-9.648437 0-9.667969 15 0 15 9.652344 0 9.667969-15 0-15zm0 0"/><path d="m333.25 407.796875c-9.652344 0-9.667969 15 0 15 9.652344 0 9.667969-15 0-15zm0 0"/><path d="m178.75 104.203125c9.652344 0 9.667969-15 0-15-9.652344 0-9.667969 15 0 15zm0 0"/><path d="m96.703125 186.25c9.652344 0 9.667969-15 0-15-9.648437 0-9.667969 15 0 15zm0 0"/><path d="m415.296875 340.75c9.648437 0 9.667969-15 0-15-9.652344 0-9.667969 15 0 15zm0 0"/><path d="m178.75 407.796875c-9.652344 0-9.667969 15 0 15 9.652344 0 9.667969-15 0-15zm0 0"/><path d="m333.25 104.203125c9.652344 0 9.667969-15 0-15-9.652344 0-9.667969 15 0 15zm0 0"/></g></svg>