<svg height="512pt" viewBox="-25 0 512 512" width="512pt" xmlns="http://www.w3.org/2000/svg"><path d="m83 414-48.945312 21.070312c-16.113282 6.9375-26.554688 22.796876-26.554688 40.339844v29.089844h447.5v-29.089844c0-17.542968-10.441406-33.402344-26.554688-40.339844l-48.945312-21.070312zm0 0" fill="#e6f2ff"/><path d="m428.445312 435.070312-48.945312-21.070312h-44l48.945312 21.070312c16.113282 6.9375 26.554688 22.796876 26.554688 40.339844v29.089844h44v-29.089844c0-17.542968-10.441406-33.402344-26.554688-40.339844zm0 0" fill="#cfe9ff"/><path d="m307.75 367.5 88 39-164.5 60-164.5-60 88-39zm0 0" fill="#5779cf"/><path d="m307.75 367.5h-44l73.285156 32.480469c5.828125 2.582031 5.984375 10.792969.261719 13.597656l-107.046875 52.421875 1 .5 164.5-60zm0 0" fill="#4165bf"/><path d="m185.75 415.5v-78.5h91v78.5c-28.296875 9.433594-58.828125 9.820312-87.355469 1.113281zm0 0" fill="#fae4cb"/><path d="m243.75 337v78.5c-9.445312 3.148438-19.140625 5.265625-28.921875 6.394531 20.757813 2.402344 41.898437.28125 61.921875-6.394531v-78.5zm0 0" fill="#fad7af"/><path d="m109.921875 229.628906h-10.496094c-7.648437 0-13.847656-6.199218-13.847656-13.847656v-19.5625c0-7.648438 6.199219-13.847656 13.847656-13.847656h21.824219v-55h220v55h20.824219c7.648437 0 13.847656 6.199218 13.847656 13.847656v19.5625c0 7.648438-6.199219 13.847656-13.847656 13.847656h-10.496094l-.449219.371094v48.445312c0 17.214844-8.59375 33.296876-22.910156 42.863282l-55.371094 37c-8.480468 5.667968-18.449218 8.691406-28.644531 8.691406h-25.90625c-10.199219 0-20.164063-3.023438-28.644531-8.691406l-55.371094-37c-14.316406-9.566406-22.914062-25.648438-22.914062-42.863282v-48.445312zm0 0" fill="#fae4cb"/><path d="m362.074219 182.371094h-20.824219v-55h-23.121094v151.070312c0 17.21875-8.59375 33.300782-22.910156 42.867188l-55.371094 37c-7.492187 5.007812-16.148437 7.945312-25.097656 8.5625 1.175781.082031 2.359375.125 3.546875.125h25.90625c10.195313 0 20.164063-3.023438 28.644531-8.6875l55.371094-37c14.316406-9.566406 22.910156-25.648438 22.910156-42.867188v-48.441406l.449219-.371094h10.496094c7.648437 0 13.847656-6.199218 13.847656-13.847656v-19.5625c0-7.648438-6.199219-13.847656-13.847656-13.847656zm0 0" fill="#fad7af"/><path d="m348.75 120.5v88c-16.015625 0-29-12.984375-29-29v-46.5s-43 35-178.5 35l-.5.5v11c0 16.015625-12.984375 29-29 29v-86.5zm0 0" fill="#c28a46"/><path d="m231.25 278.25c-8.449219 0-15.300781-6.851562-15.300781-15.300781v-36.898438c0-8.449219 6.851562-15.300781 15.300781-15.300781s15.300781 6.851562 15.300781 15.300781v36.898438c0 8.449219-6.851562 15.300781-15.300781 15.300781zm0 0" fill="#fac180"/><path d="m127.691406 70c19.601563-37.164062 58.621094-62.5 103.558594-62.5s83.957031 25.335938 103.558594 62.5v17.5h-208.058594zm0 0" fill="#5779cf"/><path d="m231.25 7.5c-5.601562 0-11.109375.394531-16.5 1.15625 37.863281 5.34375 69.902344 28.8125 87.058594 61.34375v17.5h33v-17.5c-19.601563-37.164062-58.621094-62.5-103.558594-62.5zm0 0" fill="#4165bf"/><path d="m350.75 131.5h-240l-22-61h284zm0 0" fill="#e6f2ff"/><path d="m339.75 70.5-22 61h33l22-61zm0 0" fill="#cfe9ff"/><g fill="#060606"><path d="m231.25 285.75c12.570312 0 22.800781-10.226562 22.800781-22.800781v-36.898438c0-12.574219-10.230469-22.800781-22.800781-22.800781s-22.800781 10.226562-22.800781 22.800781v36.898438c0 12.574219 10.230469 22.800781 22.800781 22.800781zm-7.800781-59.699219c0-4.300781 3.5-7.800781 7.800781-7.800781s7.800781 3.5 7.800781 7.800781v36.898438c0 4.300781-3.5 7.800781-7.800781 7.800781s-7.800781-3.5-7.800781-7.800781zm0 0"/><path d="m431.410156 428.179688-33.582031-14.453126c6.410156-2.042968 7.363281-11.246093.960937-14.082031l-88-39c-.957031-.425781-1.992187-.644531-3.039062-.644531h-23.5v-.289062l48.136719-32.164063c16.433593-10.980469 26.242187-29.335937 26.242187-49.101563v-41.316406h3.445313c11.769531 0 21.347656-9.574218 21.347656-21.347656v-19.5625c0-11.769531-9.574219-21.347656-21.347656-21.347656h-5.824219v-38.300782c5-12.570312 8.957031-23.046874 12.179688-31.984374 3.792968-10.515626 7.582031-21.027344 11.375-31.539063 1.726562-4.792969-2.050782-10.046875-7.054688-10.046875h-33.234375c-22.144531-38.960938-63.261719-63-108.265625-63s-86.121094 24.039062-108.265625 63h-34.234375c-4.992188 0-8.777344 5.273438-7.054688 10.042969 3.792969 10.515625 7.582032 21.027343 11.375 31.539062 3.53125 9.789063 7.179688 18.417969 11.179688 30.640625v39.648438h-4.824219c-11.769531 0-21.347656 9.574218-21.347656 21.347656v19.5625c0 11.769531 9.574219 21.347656 21.347656 21.347656h4.445313v41.3125c0 19.765625 9.808594 38.121094 26.242187 49.105469l48.136719 32.164063v.289062h-23.5c-1.046875 0-2.082031.21875-3.039062.644531l-88 39c-6.402344 2.835938-5.449219 12.039063.960937 14.082031l-33.582031 14.453126c-18.886719 8.128906-31.089844 26.667968-31.089844 47.230468v29.089844c0 4.140625 3.355469 7.5 7.5 7.5h347.75c9.675781 0 9.675781-15 0-15h-340.25v-21.589844c0-14.5625 8.644531-27.695312 22.019531-33.453125l48.1875-20.742187 25.472657 9.292968c9.074218 3.308594 14.234374-10.773437 5.140624-14.09375l-29.035156-10.589843 69.554688-30.824219h21.910156v28.648438c-4.296875-2.402344-8.472656-5.097657-12.472656-8.128907-7.714844-5.835937-16.769532 6.121094-9.054688 11.960938 21.628906 16.375 47.398438 25.03125 74.527344 25.03125s52.898438-8.65625 74.527344-25.03125c7.710937-5.839844-1.34375-17.796875-9.054688-11.960938-4.003906 3.03125-8.175781 5.726563-12.476562 8.128907v-28.648438h21.914062l69.554688 30.824219-144.464844 52.691406-76.429688-27.875c-9.089843-3.316406-14.230468 10.773437-5.140624 14.089844l79 28.816406c1.714843.605469 3.425781.605469 5.140624 0l143.472657-52.332031 48.1875 20.742187c13.375 5.757813 22.019531 18.890625 22.019531 33.453125v21.589844h-49.25c-9.675781 0-9.675781 15 0 15h56.75c4.144531 0 7.5-3.359375 7.5-7.5v-29.089844c0-20.5625-12.203125-39.101562-31.089844-47.230468zm-312.160156-289.179688h172.242188c-4.039063 1.558594-8.636719 3.175781-13.859376 4.792969-44.644531 13.808593-98.808593 16.707031-136.382812 16.707031-1.988281 0-3.894531.789062-5.304688 2.195312l-.5.5c-1.40625 1.40625-2.195312 3.316407-2.195312 5.304688v11c0 9.21875-5.832031 17.101562-14 20.148438zm208 0h14v60.648438c-8.167969-3.046876-14-10.929688-14-20.148438zm-227.820312-61h50.820312c9.675781 0 9.675781-15 0-15h-9.609375c20.261719-29.875 53.96875-48 90.609375-48s70.347656 18.125 90.609375 48h-130.609375c-9.675781 0-9.675781 15 0 15h170.820312l-16.589843 46h-229.460938zm19.441406 200.445312v-48.445312c0-4.722656-4.515625-7.871094-8.949219-7.871094h-10.496094c-3.5 0-6.347656-2.847656-6.347656-6.347656v-19.5625c0-3.5 2.847656-6.347656 6.347656-6.347656h4.824219v18.628906c0 4.140625 3.355469 7.5 7.5 7.5 20.125 0 36.5-16.375 36.5-36.5v-4.03125c94.507812-.847656 143.390625-18.746094 164-29.230469v33.261719c0 20.125 16.375 36.5 36.5 36.5 4.144531 0 7.5-3.359375 7.5-7.5v-18.628906h5.824219c3.5 0 6.347656 2.847656 6.347656 6.347656v19.5625c0 3.5-2.847656 6.347656-6.347656 6.347656h-10.496094c-4.125 0-7.949219 3.742188-7.949219 7.871094v48.445312c0 14.746094-7.316406 28.4375-19.578125 36.628907l-55.371093 37c-11.582032 7.742187-24.214844 7.425781-37.429688 7.425781s-25.847656.316406-37.429688-7.425781l-55.371093-37c-12.261719-8.191407-19.578125-21.886719-19.578125-36.628907zm74.378906 132.144532v-41.664063c7.804688 3.664063 16.320312 5.574219 25.046875 5.574219h25.90625c8.726563 0 17.242187-1.910156 25.046875-5.574219v41.664063c-24.449219 9.085937-51.550781 9.085937-76 0zm0 0"/></g></svg>