<svg xmlns="http://www.w3.org/2000/svg" xmlns:xlink="http://www.w3.org/1999/xlink" width="25.98" height="32.493" viewBox="0 0 25.98 32.493"><defs><style>.a{fill:none;}.b{clip-path:url(#a);}.c{fill:#9ad5fc;}.d{fill:#6fc4fc;}.e{fill:#060606;}</style><clipPath id="a"><rect class="a" width="25.98" height="32.493"/></clipPath></defs><g class="b"><path class="c" d="M117.561,341.247a6.914,6.914,0,0,0-5.943,4.3.392.392,0,0,1-.73-.009c-1.525-4.109-5.981-4.292-5.981-4.292a6.461,6.461,0,0,0,6.364-5.138S111.885,340.893,117.561,341.247Zm0,0" transform="translate(-98.28 -314.779)"/><path class="d" d="M184.419,336.109a6.821,6.821,0,0,1-1.407,2.914,5.884,5.884,0,0,0,.475.495,2.541,2.541,0,0,1,.032,3.674,6.425,6.425,0,0,0-.5.549,6.343,6.343,0,0,1,1.016,1.8.392.392,0,0,0,.731.011,6.914,6.914,0,0,1,5.943-4.3C185.034,340.893,184.419,336.109,184.419,336.109Zm0,0" transform="translate(-171.429 -314.779)"/><g transform="translate(0 6.971)"><path class="c" d="M81.564,110.769a.938.938,0,1,0-.938.933A.935.935,0,0,0,81.564,110.769Zm0,0" transform="translate(-74.662 -109.836)"/><path class="c" d="M301.841,110.769a.938.938,0,1,0-.938.933A.935.935,0,0,0,301.841,110.769Zm0,0" transform="translate(-280.96 -109.836)"/><path class="c" d="M.5,262.438v-2.647a.381.381,0,0,1,.7-.205l1.45,2.266a.381.381,0,0,1-.321.586Zm0,0" transform="translate(-0.5 -249.918)"/><path class="c" d="M377.21,261.443V258.79a.379.379,0,0,0-.7-.2l-1.455,2.272a.379.379,0,0,0,.319.584Zm0,0" transform="translate(-351.23 -248.982)"/></g><path class="e" d="M26.137,15.026a.477.477,0,0,0-.535.2l-2.527,3.948a.483.483,0,0,0,.4.733h2.051s-.01.694-.029.884h-.915a.476.476,0,0,0,0,.952h.736a5.785,5.785,0,0,1-11.353-1.529v-9.8h1.619a.476.476,0,0,0,0-.952H13.966V8.379h5.146a1.409,1.409,0,1,0,0-.952H13.966V5.366a2.718,2.718,0,0,0,.685-.228.476.476,0,0,0-.418-.855,1.753,1.753,0,1,1,.988-1.576.476.476,0,0,0,.952,0,2.72,2.72,0,1,0-3.159,2.672V7.427H7.794a1.409,1.409,0,1,0,0,.952h5.22v1.08H11.4a.476.476,0,0,0,0,.952h1.619v9.8A5.783,5.783,0,0,1,8.1,25.949a5.871,5.871,0,0,1-6.454-4.206H2.4a.476.476,0,0,0,0-.952h-.92c-.015-.17-.024-.824-.024-.824H3.5a.482.482,0,0,0,.4-.733L1.377,15.286a.479.479,0,0,0-.877.257v4.731a6.723,6.723,0,0,0,6.733,6.7,6.17,6.17,0,0,1,3.022,1.006.477.477,0,0,0,.5-.809,7.763,7.763,0,0,0-1.2-.607,6.753,6.753,0,0,0,3.95-3.844,6.753,6.753,0,0,0,3.972,3.8c-.2.079-.406.169-.615.273A7.055,7.055,0,0,0,13.476,30.4a6.869,6.869,0,0,0-.718-1.339.476.476,0,0,0-.783.542,6.457,6.457,0,0,1,1.01,2.514.479.479,0,0,0,.933.017,6.528,6.528,0,0,1,6.045-5.224,6.69,6.69,0,0,0,6.517-6.693V15.483A.476.476,0,0,0,26.137,15.026Zm-5.695-7.58A.457.457,0,1,1,20,8.031a.468.468,0,0,0,0-.256A.462.462,0,0,1,20.443,7.446ZM6.463,8.359A.457.457,0,1,1,6.926,7.9.46.46,0,0,1,6.463,8.359ZM1.452,17.17l1.181,1.845H1.452Zm24.075-.06v1.845h-1.18Zm0,0" transform="translate(-0.5)"/></g></svg>