<svg xmlns="http://www.w3.org/2000/svg" width="34.238" height="35" viewBox="0 0 34.238 35"><defs><style>.a{fill:#ffd573;}.b{fill:#ffc338;}.c{fill:#6c8299;}.d{fill:#5b6e82;}.e{fill:#e6f2ff;}.f{fill:#060606;}</style></defs><g transform="translate(-0.5 0)"><path class="a" d="M139.1,120.1l-5.25,9.138,5.04,9.255-9.138-5.25-9.255,5.04,5.25-9.138-5.04-9.255,9.138,5.25Zm0,0" transform="translate(-111.797 -111.699)"/><path class="b" d="M290.338,122.957l-3.283,1.788-4.223,7.35,4.013,7.369,3.283,1.886-5.04-9.255Zm0,0" transform="translate(-263.032 -114.552)"/><path class="c" d="M106.4,94.648l2.331,8.626L117.3,105.8l-8.626,2.331-2.527,8.571-2.331-8.626L95.25,105.55l8.626-2.331Zm0,0" transform="translate(-88.273 -88.178)"/><path class="d" d="M242.607,103.274l-2.331-8.626L239.1,98.641l1.252,4.633.791,2.4-.846,2.457-1.35,4.578,1.079,3.993,2.527-8.571,8.626-2.331Zm0,0" transform="translate(-222.145 -88.178)"/><path class="e" d="M242.6,240.976a1.025,1.025,0,1,0,1.014,1.037A1.025,1.025,0,0,0,242.6,240.976Zm0,0" transform="translate(-224.583 -224.503)"/><g transform="translate(0.5 0)"><path class="f" d="M110.951,98.953a.513.513,0,0,0-.368-.5L105.2,96.869l3.955-6.884a.518.518,0,0,0-.69-.706l-6.972,3.8-1.464-5.416a.517.517,0,0,0-.987-.011L97.458,93.03l-6.884-3.955a.518.518,0,0,0-.706.69l2.72,4.994a.513.513,0,0,0,.9-.491l-1.852-3.4,5.523,3.173-.561,1.9L88.25,98.2a.516.516,0,0,0-.011.987l5.381,1.586-3.954,6.884a.517.517,0,0,0,.69.706l6.972-3.8,1.464,5.416a.517.517,0,0,0,.987.011l.933-3.165a.513.513,0,0,0-.984-.29l-.42,1.424-1.858-6.874a.513.513,0,0,0-.35-.358l-6.83-2.014,6.874-1.858a.513.513,0,0,0,.358-.35l2.014-6.83,1.858,6.874a.513.513,0,0,0,.35.358l6.83,2.014-6.874,1.858a.513.513,0,0,0-.358.349l-.76,2.568a.551.551,0,0,0,.346.649l7.341,4.217a.517.517,0,0,0,.706-.69l-3.8-6.972,5.416-1.464A.513.513,0,0,0,110.951,98.953Zm-13.9,4.6L91.458,106.6l3.173-5.523,1.9.561Zm4.718-9.455,5.593-3.046-3.173,5.523-1.9-.561Zm5.415,12.68L101.66,103.6l.563-1.9,1.916-.518Zm0,0" transform="translate(-81.907 -81.324)"/><path class="f" d="M231.575,4.576a.513.513,0,0,0,.513-.513V2.149l1.527,2.206a.516.516,0,0,0,.934-.292V.508a.513.513,0,0,0-1.026,0V2.422L232,.216a.516.516,0,0,0-.934.292V4.063A.513.513,0,0,0,231.575,4.576Zm0,0" transform="translate(-215.301 0)"/><path class="f" d="M453.95,226.012h-1.921v-.786h1.459a.513.513,0,0,0,0-1.026h-1.459v-.718h1.921a.513.513,0,0,0,0-1.026h-2.433a.513.513,0,0,0-.513.513v3.555a.513.513,0,0,0,.513.513h2.433A.513.513,0,0,0,453.95,226.012Zm0,0" transform="translate(-420.208 -207.25)"/><path class="f" d="M3.55,226.562a.516.516,0,0,0,.934-.162l.81-3.624a.513.513,0,0,0-1-.224l-.539,2.412-.417-.659a.52.52,0,0,0-.867,0l-.416.659-.539-2.412a.513.513,0,0,0-1,.224l.81,3.624a.519.519,0,0,0,.934.162l.646-1.023Zm0,0" transform="translate(-0.5 -206.979)"/><path class="f" d="M236.7,233.92a1.527,1.527,0,0,0-1.083-.463H235.6a1.538,1.538,0,0,0-.017,3.077h.018a1.538,1.538,0,0,0,1.1-2.614Zm-1.106,1.588a.513.513,0,0,1,.006-1.025h.006a.513.513,0,0,1-.012,1.025Zm0,0" transform="translate(-218.095 -217.498)"/><path class="f" d="M44.8,321.309a14.87,14.87,0,0,1-10.628-10.29.513.513,0,0,0-.986.283,15.9,15.9,0,0,0,11.363,11A.513.513,0,0,0,44.8,321.309Zm0,0" transform="translate(-30.934 -289.424)"/><path class="f" d="M310.462,306.484a.513.513,0,0,0-.628.363,14.861,14.861,0,0,1-11.1,10.648.513.513,0,0,0,.223,1,15.886,15.886,0,0,0,11.866-11.385A.513.513,0,0,0,310.462,306.484Zm0,0" transform="translate(-277.993 -285.517)"/><path class="f" d="M296.677,29.846a14.862,14.862,0,0,1,11.138,10.347.513.513,0,0,0,.985-.287,15.889,15.889,0,0,0-11.908-11.063A.513.513,0,0,0,296.677,29.846Zm0,0" transform="translate(-276.066 -26.86)"/><path class="f" d="M33.572,41.439a.523.523,0,0,0,.634-.352A14.83,14.83,0,0,1,45.1,30.734a.513.513,0,0,0-.232-1A15.857,15.857,0,0,0,33.22,40.805.513.513,0,0,0,33.572,41.439Zm0,0" transform="translate(-30.965 -27.688)"/><path class="f" d="M230.956,440.556a1.631,1.631,0,0,0-1.551-.7c-.577.041-1.024-.115-1.063-.372a.351.351,0,0,1,.081-.277.743.743,0,0,1,.548-.222,1.055,1.055,0,0,1,.764.252c.443.491,1.185-.217.742-.708a2.065,2.065,0,0,0-1.561-.568,1.744,1.744,0,0,0-1.288.6,1.385,1.385,0,0,0-.3,1.078c.127.839.971,1.327,2.15,1.242a.635.635,0,0,1,.615.236.485.485,0,0,1,.012.495.979.979,0,0,1-.9.385,1.678,1.678,0,0,1-1.15-.364c-.456-.479-1.194.244-.738.723a2.667,2.667,0,0,0,1.887.667,1.95,1.95,0,0,0,1.8-.919A1.509,1.509,0,0,0,230.956,440.556Zm0,0" transform="translate(-211.677 -408.015)"/></g></g></svg>