<svg height="512pt" viewBox="0 0 512 512.002" width="512pt" xmlns="http://www.w3.org/2000/svg"><path d="m255.933594 61.9375c-107.1875 0-194.085938 86.917969-194.085938 194.140625 0 107.21875 86.898438 194.136719 194.085938 194.136719 107.191406 0 194.085937-86.917969 194.085937-194.136719 0-107.222656-86.894531-194.140625-194.085937-194.140625zm0 300.554688c-58.753906 0-106.382813-47.644532-106.382813-106.414063 0-58.773437 47.628907-106.414063 106.382813-106.414063 58.757812 0 106.386718 47.640626 106.386718 106.414063 0 58.769531-47.628906 106.414063-106.386718 106.414063zm0 0" fill="#ff7566"/><path d="m255.933594 61.9375c-5.550782 0-11.046875.246094-16.484375.703125 99.472656 8.371094 177.601562 91.773437 177.601562 193.4375s-78.125 185.066406-177.601562 193.4375c5.4375.457031 10.933593.703125 16.484375.703125 107.191406 0 194.085937-86.921875 194.085937-194.140625s-86.894531-194.140625-194.085937-194.140625zm0 0" fill="#ff5542"/><path d="m255.933594 163.136719c5.269531 0 10.453125.359375 15.53125 1.054687 7.609375 1.039063 14.414062-4.78125 14.414062-12.460937v-142.082031c-9.78125-1.410157-19.773437-2.15625-29.945312-2.15625-10.167969 0-20.160156.746093-29.941406 2.15625v142.082031c0 7.679687 6.804687 13.503906 14.414062 12.460937 5.074219-.695312 10.257812-1.054687 15.527344-1.054687zm0 0" fill="#e6f2ff"/><path d="m255.933594 348.863281c-5.109375 0-10.144532-.339843-15.078125-.996093-7.597657-1.007813-14.378907 4.804687-14.378907 12.46875v142.082031c9.625 1.367187 19.457032 2.089843 29.457032 2.089843 10.339844 0 20.496094-.765624 30.425781-2.222656v-142.082031c0-7.691406-6.820313-13.527344-14.4375-12.457031-5.222656.734375-10.5625 1.117187-15.988281 1.117187zm0 0" fill="#e6f2ff"/><g fill="#cfe9ff"><path d="m255.933594 7.492188c-5.546875 0-11.042969.230468-16.484375.660156 4.527343.359375 9.015625.855468 13.457031 1.496094v142.082031c0 5.769531-3.839844 10.492187-8.976562 12.039062 3.945312-.414062 7.949218-.632812 12.003906-.632812 5.269531 0 10.453125.359375 15.53125 1.054687 7.609375 1.039063 14.414062-4.78125 14.414062-12.460937v-142.082031c-9.78125-1.410157-19.773437-2.15625-29.945312-2.15625zm0 0"/><path d="m238.496094 164.191406c-1.167969-.160156-2.34375-.296875-3.527344-.421875 1.414062.425781 2.925781.597657 4.484375.5-.320313-.019531-.636719-.035156-.957031-.078125zm0 0"/><path d="m271.921875 347.746094c-5.226563.734375-10.5625 1.117187-15.988281 1.117187-3.726563 0-7.410156-.1875-11.046875-.535156 4.890625 1.6875 8.503906 6.285156 8.503906 11.875v142.082031c-4.59375.671875-9.234375 1.191406-13.917969 1.5625 5.429688.429688 10.917969.660156 16.460938.660156 10.339844 0 20.496094-.765624 30.425781-2.222656v-142.082031c0-7.691406-6.820313-13.527344-14.4375-12.457031zm0 0"/><path d="m238.648438 347.78125c-.75.03125-1.488282.117188-2.203126.273438.734376-.085938 1.472657-.171876 2.203126-.273438zm0 0"/></g><path d="m502.222656 226.050781h-142.046875c-7.679687 0-13.5 6.800781-12.460937 14.410157.695312 5.082031 1.054687 10.269531 1.054687 15.539062 0 5.273438-.359375 10.460938-1.054687 15.542969-1.039063 7.605469 4.78125 14.410156 12.460937 14.410156h142.046875c1.410156-9.78125 2.152344-19.78125 2.152344-29.949219 0-10.175781-.742188-20.171875-2.152344-29.953125zm0 0" fill="#e6f2ff"/><path d="m502.222656 226.050781h-32.96875c1.410156 9.78125 2.152344 19.777344 2.152344 29.949219s-.742188 20.167969-2.152344 29.953125h32.96875c1.410156-9.785156 2.152344-19.78125 2.152344-29.953125s-.742188-20.167969-2.152344-29.949219zm0 0" fill="#cfe9ff"/><path d="m163.101562 256c0-5.273438.359376-10.460938 1.054688-15.539062 1.039062-7.609376-4.78125-14.414063-12.460938-14.414063h-142.046874c-1.410157 9.785156-2.15625 19.78125-2.15625 29.953125s.746093 20.167969 2.15625 29.949219h142.046874c7.679688 0 13.5-6.800781 12.460938-14.410157-.695312-5.078124-1.054688-10.265624-1.054688-15.539062zm0 0" fill="#e6f2ff"/><path d="m509.640625 224.980469c-.53125-3.6875-3.691406-6.425781-7.417969-6.425781h-4.9375c-7.847656-51.421876-31.515625-98.085938-68.679687-135.257813-37.15625-37.167969-83.824219-60.855469-135.234375-68.707031v-4.941406c0-3.726563-2.734375-6.886719-6.421875-7.417969-10.265625-1.480469-20.703125-2.230469-31.015625-2.230469s-20.746094.75-31.011719 2.230469c-3.6875.535156-6.421875 3.691406-6.421875 7.417969v4.945312c-51.410156 7.855469-98.089844 31.546875-135.234375 68.703125-37.171875 37.183594-60.828125 83.835937-68.675781 135.261719h-4.941406c-3.726563 0-6.886719 2.734375-7.417969 6.421875-1.476563 10.269531-2.230469 20.703125-2.230469 31.019531s.75 20.753906 2.230469 31.019531c.53125 3.6875 3.691406 6.425781 7.417969 6.425781h4.941406c7.847656 51.421876 31.496094 98.070313 68.675781 135.261719 37.28125 37.289063 84.113281 61.003907 135.714844 68.777344v4.9375c0 3.730469 2.75 6.894531 6.441406 7.417969 10.109375 1.433594 20.375 2.164062 30.511719 2.164062 10.496094 0 21.101562-.777344 31.515625-2.304687 3.675781-.539063 6.40625-3.695313 6.40625-7.414063v-4.957031c51.21875-7.921875 97.703125-31.566406 134.75-68.621094 37.140625-37.152343 60.824219-83.839843 68.675781-135.261719h4.941406c3.726563 0 6.882813-2.734374 7.414063-6.421874 1.480469-10.269532 2.230469-20.703126 2.230469-31.019532s-.75-20.757812-2.226563-31.023437zm-14.011719 53.476562h-135.453125c-3.097656 0-5.453125-2.859375-5.039062-5.902343 1.5-10.964844 1.5-22.144532 0-33.109376-.414063-3.03125 1.925781-5.902343 5.039062-5.902343h135.449219c1.667969 14.914062 1.667969 30 .003906 44.914062zm-205.300781 70.398438c-.949219-1.382813-2.074219-2.65625-3.367187-3.78125-4.414063-3.835938-10.273438-5.570313-16.082032-4.75-9.554687 1.34375-19.46875 1.386719-29.035156.117187-5.804688-.769531-11.648438.992188-16.03125 4.832032-1.316406 1.152343-2.460938 2.464843-3.421875 3.890624-27.6875-9.941406-49.351563-31.539062-59.394531-59.214843 1.386718-.949219 2.667968-2.074219 3.792968-3.363281 3.839844-4.398438 5.585938-10.253907 4.792969-16.058594-.652343-4.785156-.984375-9.671875-.984375-14.527344s.332032-9.742188.984375-14.527344c.792969-5.804687-.953125-11.660156-4.789062-16.054687-1.117188-1.277344-2.378907-2.390625-3.746094-3.332031 10.015625-27.425782 31.613281-48.992188 59.011719-58.96875.9375 1.355468 2.039062 2.605468 3.304687 3.710937 3.699219 3.226563 8.429688 4.976563 13.296875 4.976563.917969 0 1.839844-.0625 2.761719-.1875 9.558594-1.308594 19.472656-1.308594 29.03125 0 5.808594.796874 11.660156-.953126 16.058594-4.789063 1.269531-1.105469 2.371093-2.355469 3.308593-3.714844 27.417969 9.96875 48.980469 31.496094 59.007813 58.976563-1.367187.941406-2.632813 2.050781-3.746094 3.328125-3.839843 4.398437-5.582031 10.25-4.789062 16.058593.652343 4.78125.984375 9.671876.984375 14.523438 0 4.855469-.332032 9.742188-.988282 14.527344-.792968 5.808594.953126 11.660156 4.792969 16.058594 1.125 1.289062 2.402344 2.414062 3.792969 3.363281-9.933594 27.332031-31.296875 48.824219-58.546875 58.90625zm-274.085937-70.398438c-1.664063-14.914062-1.664063-30 0-44.914062h81.839843c9.644531 0 9.710938-14.984375 0-14.984375h-24.960937c13.019531-63.195313 58.011718-115.625 118.832031-137.816406 8.660156-3.160157 17.566406-5.679688 26.546875-7.53125v75.269531c-32.839844 11.414062-58.667969 37.195312-70.117188 70.078125h-8.339843c-9.644531 0-9.710938 14.984375 0 14.984375h11.652343c3.097657 0 5.453126 2.859375 5.039063 5.902343-1.5 10.964844-1.5 22.144532 0 33.109376.414063 3.03125-1.925781 5.902343-5.039063 5.902343zm132.097656 14.988281c11.488281 33.207032 37.417968 59.035157 70.640625 70.394532v75.191406c-63.4375-12.890625-116.046875-57.914062-138.332031-118.988281-3.167969-8.683594-5.695313-17.597657-7.550782-26.597657zm269.667968-199.554687c34.335938 34.347656 56.390626 77.316406 64.097657 124.664063h-28.097657c-2.042968-10.691407-4.953124-21.289063-8.707031-31.578126-16.085937-44.078124-47.21875-81.363281-87.671875-104.976562-1.644531-.960938-3.320312-1.90625-4.976562-2.8125-4.179688-2.285156-9.546875-.003906-10.820313 4.582031-1.699219 6.125 3.9375 8.65625 8.242188 11.171875 37.441406 21.859375 66.257812 56.367188 81.148437 97.171875 3.148438 8.632813 5.667969 17.492188 7.519532 26.441407h-75.253907c-11.46875-32.945313-37.257812-58.664063-70.117187-70.074219v-75.25c5.351562 1.105469 10.675781 2.425781 15.898437 3.988281 9.230469 2.765625 13.550781-11.585938 4.296875-14.355469-6.621094-1.980469-13.394531-3.617187-20.195312-4.914062v-28.175781c47.339844 7.710937 90.304687 29.78125 124.636718 64.117187zm-184.523437-77.648437c14.9375-1.667969 29.960937-1.667969 44.898437 0v135.488281c0 3.101562-2.859374 5.445312-5.902343 5.039062-10.960938-1.5-22.132813-1.5-33.09375 0-3.027344.40625-5.902344-1.921875-5.902344-5.039062zm-139.621094 77.648437c34.320313-34.328125 77.296875-56.402344 124.636719-64.117187v28.160156c-10.722656 2.039062-21.367188 4.964844-31.683594 8.726562-66.667968 24.328125-115.71875 82.289063-128.957031 151.894532h-28.097656c7.707031-47.347657 29.757812-90.308594 64.101562-124.664063zm0 324.21875c-34.347656-34.363281-56.398437-77.316406-64.101562-124.664063h28.070312c2.042969 10.746094 4.964844 21.394532 8.738281 31.734376 24.421876 66.929687 82.554688 116.007812 152.414063 129.109374v28.015626c-47.53125-7.636719-90.667969-29.734376-125.121094-64.195313zm185.003907 77.597656c-14.902344 1.699219-29.933594 1.738281-44.898438.101563v-135.472656c0-3.101563 2.863281-5.441407 5.902344-5.039063 10.910156 1.445313 22.203125 1.402344 33.09375-.128906 3.035156-.425781 5.902344 1.921875 5.902344 5.035156v15.765625c0 9.640625 14.988281 9.707031 14.988281 0v-12.464844c32.722656-11.53125 58.3125-37.246094 69.679687-70.058594h75.234375c-12.972656 63.304688-57.839843 115.707032-118.851562 137.972657-8.507813 3.105469-17.242188 5.589843-26.0625 7.433593v-21.921874c0-9.644532-14.988281-9.710938-14.988281 0zm139.140624-77.597656c-34.222656 34.226563-77.007812 56.257813-124.15625 64.039063v-28.019532c10.566407-2.035156 21.035157-4.925781 31.203126-8.636718 66.878906-24.402344 115.8125-82.316407 129.003906-152.046876h28.046875c-7.710938 47.347657-29.78125 90.335938-64.097657 124.664063zm0 0" fill="#060606"/><path d="m332.023438 119.605469c.476562.199219 48.101562 20.644531 69.738281 78.488281 3.40625 9.101562 17.429687 3.816406 14.035156-5.253906-24.011719-64.1875-75.851563-86.179688-78.046875-87.085938-8.898438-3.667968-14.667969 10.117188-5.726562 13.851563zm0 0" fill="#060606"/></svg>