<svg height="512pt" viewBox="0 0 512 512" width="512pt" xmlns="http://www.w3.org/2000/svg"><path d="m461.683594 504.5h-454.183594v-414.449219h405.007812v-82.550781h49.175782c23.644531 0 42.816406 19.148438 42.816406 42.769531v411.460938c0 23.621093-19.171875 42.769531-42.816406 42.769531zm0 0" fill="#faeccb"/><path d="m499 444v-317.5h-90.5l-366.195312.085938v342.035156h405.488281c17.058593 0 44.707031-5.121094 51.707031-24.121094" fill="#5779cf"/><path d="m371.753906 126.773438s-73.664062-8.613282-47.832031 56.476562c28.976563 73.019531-22.960937 87.101562-54.53125 66.046875-31.570313-21.058594-69.835937-11.488281-130.109375 14.355469-60.269531 25.84375-97.28125-23.652344-97.28125-23.652344v-113zm0 0" fill="#05ba83"/><path d="m388.8125 467.148438s-.851562-28.9375-54.460938-41.800782c-53.609374-12.863281-43.398437-61.898437-85.941406-66.722656-42.546875-4.820312-38.292968 34.566406-79.136718 55.46875s-37.015626 55.066406-37.015626 55.066406zm0 0" fill="#05ba83"/><path d="m413.984375 8.695312h46.242187c24.449219 0 44.273438 19.796876 44.273438 44.222657v407.582031-.222656c0-24.425782-19.824219-44.226563-44.273438-44.226563h-46.242187z" fill="#edc872"/><path d="m461.683594 0h-49.175782c-4.144531 0-7.5 3.359375-7.5 7.5v75.050781h-397.507812c-4.140625 0-7.5 3.359375-7.5 7.5v334.949219c0 9.652344 15 9.71875 15 0v-327.449219h391.484375v21.535157h-364.179687c-4.140626 0-7.5 3.355468-7.5 7.5v342.035156c0 4.144531 3.359374 7.5 7.5 7.5h405.488281c17.273437 0 36.980469-4.222656 49.191406-15.1875-.355469 19.945312-16.703125 36.066406-36.757813 36.066406h-445.226562v-26c0-9.652344-15-9.71875-15 0v33.5c0 4.140625 3.359375 7.5 7.5 7.5h454.183594c27.746094 0 50.316406-22.550781 50.316406-50.269531v-411.460938c0-27.71875-22.570312-50.269531-50.316406-50.269531zm-141.902344 134.085938c-.578125.648437-1.144531 1.308593-1.675781 2-9.171875 11.949218-9.5625 28.75-1.15625 49.929687 11.046875 27.835937 10.503906 49.363281-1.484375 59.0625-10.183594 8.234375-27.808594 7.382813-41.910156-2.023437-34.628907-23.097657-74.945313-13.003907-137.226563 13.703124-53.847656 23.085938-83.996094-15.539062-85.28125-17.238281-.367187-.488281-.789063-.910156-1.242187-1.28125v-104.152343zm-179.695312 327.035156c1.472656-9.84375 7.707031-27.609375 32.605468-40.351563 18.855469-9.648437 29.03125-23.117187 37.207032-33.941406 10.859374-14.371094 17.414062-23.046875 37.667968-20.75 17.03125 1.929687 23.484375 11.816406 32.414063 25.503906 9.796875 15.019531 21.996093 33.710938 52.621093 41.058594 31.800782 7.632813 42.859376 20.683594 46.695313 28.480469zm320.140624-52.570313h-38.742187v-147.550781c0-9.652344-15-9.71875-15 0v155.050781c0 4.140625 3.355469 7.5 7.5 7.5h46.242187c13.75 0 25.753907 7.582031 32.0625 18.773438-5.894531 14.820312-30.664062 18.796875-44.496093 18.796875h-52.550781c-3.019532-10.484375-14.621094-32.382813-59.140626-43.066406-24.824218-5.957032-33.925781-19.902344-43.5625-34.667969-9.457031-14.496094-19.238281-29.484375-43.285156-32.210938-28.75-3.261719-40.226562 11.925781-51.324218 26.609375-8.003907 10.597656-16.28125 21.550782-32.074219 29.632813-32.277344 16.515625-39.457031 40.757812-40.875 53.703125h-75.175781v-201.714844c4.246093 3.546875 9.714843 7.4375 16.363281 10.8125 9.191406 4.667969 21.714843 8.847656 37.09375 8.847656 11.472656 0 24.535156-2.328125 38.976562-8.519531 57.4375-24.632813 94.050781-34.320313 122.992188-15.015625 19.734375 13.164062 44.273437 13.664062 59.667969 1.210938 10.25-8.292969 24.660156-29.226563 5.992187-76.261719-6.3125-15.914063-6.617187-27.769531-.902344-35.238281 5.886719-7.691407 17.894531-10.4375 27.859375-11.15625h48.636719v81.914062c0 9.652344 15 9.71875 15 0v-201h40.199219c19.472656 0 35.316406 15.820312 35.316406 35.269531v373.636719c-9.390625-9.472656-22.40625-15.355469-36.773438-15.355469zm0 0" fill="#060606"/></svg>