<svg height="512pt" viewBox="0 -36 512.00034 512" width="512pt" xmlns="http://www.w3.org/2000/svg"><path d="m449.710938 294.375 40.386718-26.375c15.695313-10.25 19.316406-31.769531 7.839844-46.621094l-132.191406-171.113281c-20.839844-26.972656-52.9375-42.757813-86.949219-42.757813h-45.589844c-34.015625 0-66.113281 15.785157-86.953125 42.757813l-132.191406 171.117187c-11.476562 14.851563-7.855469 36.367188 7.839844 46.617188l40.386718 26.375zm0 0" fill="#5779cf"/><path d="m497.9375 221.382812-132.191406-171.117187c-20.839844-26.972656-52.9375-42.757813-86.949219-42.757813h-44.027344c34.011719 0 66.109375 15.785157 86.949219 42.757813l132.195312 171.117187c11.472657 14.851563 7.851563 36.367188-7.84375 46.617188l-40.386718 26.375h44.027344l40.386718-26.375c15.695313-10.25 19.316406-31.769531 7.839844-46.617188zm0 0" fill="#4165bf"/><path d="m62.289062 294.375h387.421876v53.164062h-387.421876zm0 0" fill="#ffd573"/><path d="m449.710938 347.539062c0-.414062-29.105469 84.042969-193.710938 84.042969-160.601562 0-193.710938-84.457031-193.710938-84.042969zm0 0" fill="#5779cf"/><path d="m386.671875 347.539062c0-.386718-25.285156 72.875-161.835937 82.898438 9.820312.734375 20.183593 1.140625 31.164062 1.140625 164.605469 0 193.710938-84.457031 193.710938-84.039063zm0 0" fill="#4165bf"/><g fill="#060606"><path d="m209.859375 205.917969c3.496094-2.226563 4.523437-6.867188 2.292969-10.359375l-12.695313-19.902344c-3.921875-6.152344-13.832031-3.269531-13.832031 4.035156v23.851563c0 21.429687 17.46875 38.863281 38.941406 38.863281 12.964844 0 24.460938-6.359375 31.542969-16.113281 7.097656 9.582031 18.496094 15.8125 31.328125 15.8125 21.46875 0 38.9375-17.433594 38.9375-38.867188v-23.976562c0-7.832031-11.035156-10.257813-14.320312-3.140625l-12.203126 19.132812c-2.230468 3.496094-1.203124 8.136719 2.289063 10.363282 2.957031 1.886718 6.734375 1.441406 9.179687-.859376-.789062 12.449219-11.199218 22.339844-23.882812 22.339844-13.195312 0-23.929688-10.703125-23.929688-23.859375v-54.5625h22.898438c9.65625 0 9.722656-15.007812 0-15.007812h-22.898438v-20.085938c6.527344-2.9375 11.089844-9.488281 11.089844-17.089843 0-10.339844-8.425781-18.753907-18.78125-18.753907-10.355468 0-18.777344 8.414063-18.777344 18.753907 0 7.75 4.730469 14.414062 11.457032 17.269531v19.90625h-22.714844c-9.660156 0-9.722656 15.007812 0 15.007812h22.714844v54.863281c0 13.15625-10.738282 23.859376-23.933594 23.859376-12.679688 0-23.089844-9.890626-23.878906-22.339844 2.441406 2.300781 6.21875 2.746094 9.175781.859375zm45.957031-113.167969c2.078125 0 3.769532 1.679688 3.769532 3.746094 0 2.0625-1.691407 3.742187-3.769532 3.742187s-3.769531-1.679687-3.769531-3.742187c0-2.066406 1.691406-3.746094 3.769531-3.746094zm0 0"/><path d="m503.878906 216.792969-132.191406-171.117188c-22.097656-28.601562-56.824219-45.675781-92.890625-45.675781h-45.589844c-36.070312 0-70.796875 17.074219-92.890625 45.675781-5.90625 7.644531 5.933594 16.875 11.878906 9.175781 19.273438-24.949218 49.554688-39.84375 81.007813-39.84375h45.589844c31.921875 0 61.453125 14.523438 81.011719 39.84375l132.195312 171.117188c8.671875 11.222656 5.859375 27.996094-6.003906 35.746094l-38.519532 25.15625h-382.953124l-38.519532-25.15625c-11.867187-7.75-14.675781-24.523438-6.003906-35.746094l104.230469-134.921875c5.90625-7.644531-5.929688-16.871094-11.875-9.175781l-104.234375 134.921875c-13.949219 18.058593-9.417969 45.019531 9.675781 57.492187l36.988281 24.152344v49.101562c0 8.207032 9.714844 18.550782 14.449219 24.253907 13.824219 16.640625 31.679687 29.671875 50.859375 39.496093 41.652344 21.335938 89.609375 27.796876 135.90625 27.796876 44.984375 0 91.601562-5.683594 132.59375-25.285157 14.769531-7.058593 28.75-15.949219 40.875-26.984375 5.800781-5.28125 11.195312-11.066406 15.921875-17.332031 4.132813-5.472656 11.824219-14.703125 11.824219-21.945313v-49.101562l36.988281-24.15625c19.097656-12.46875 23.625-39.429688 9.675781-57.488281zm-247.878906 207.28125c-118.710938 0-165.328125-47-180.652344-69.027344h236.6875c9.660156 0 9.726563-15.011719 0-15.011719h-242.242187v-11.574218h31.128906c9.65625 0 9.722656-15.007813 0-15.007813h-31.128906v-11.574219h372.414062v11.574219h-30.023437c-9.660156 0-9.726563 15.007813 0 15.007813h30.023437v11.574218h-82.140625c-9.660156 0-9.726562 15.011719 0 15.011719h77.132813c-14.164063 21.855469-58.90625 69.027344-181.199219 69.027344zm0 0"/></g></svg>