<svg height="511pt" viewBox="0 0 511 511.99962" width="511pt" xmlns="http://www.w3.org/2000/svg"><path d="m346.917969 88.195312 47.003906-80.695312 36.523437 21.183594-47.6875 81.875zm0 0" fill="#c28a46"/><path d="m321.078125 247.105469 62.871094-108.398438-62.445313-36.21875-62.871094 108.398438c-25.378906-14.722657-57.886718-6.082031-72.605468 19.296875l-147.742188 258.769531c4.757813-3.496094 10.421875-6.199219 19.175782-6.199219 20.445312 0 24.078124 14.707032 38.558593 19.925782l22.597657-.105469c14.222656-5.316407 17.945312-19.820313 38.246093-19.820313 19.851563 0 23.855469 13.871094 37.332031 19.453125l25.019532-.121093c11.023437-4.707032 15.714844-14.957032 28.335937-18.269532l92.824219-164.105468c14.71875-25.378907 6.082031-57.886719-19.296875-72.605469zm0 0" fill="#64deb9"/><path d="m321.078125 247.105469 62.871094-108.398438-62.445313-36.21875-9.816406 16.925781 33.261719 19.292969-62.871094 108.398438c25.378906 14.71875 34.015625 47.226562 19.296875 72.605469l-92.828125 164.105468c-8.28125 15.183594-10.210937 17.976563-10.28125 18.183594l20.949219.085938c11.023437-4.707032 15.714844-14.957032 28.332031-18.269532l92.828125-164.105468c14.71875-25.378907 6.082031-57.886719-19.296875-72.605469zm0 0" fill="#2cd4a1"/><path d="m389.929688 142.175781-74.40625-43.15625c-5.15625-2.992187-6.910157-9.597656-3.921876-14.753906l5.570313-9.601563c2.992187-5.15625 9.597656-6.914062 14.753906-3.921874l74.40625 43.15625c5.15625 2.992187 6.910157 9.597656 3.921875 14.753906l-5.570312 9.601562c-2.992188 5.160156-9.597656 6.914063-14.753906 3.921875zm0 0" fill="#05ba83"/><path d="m206.765625 276.5-123.65625 217.824219c5.957031 5.195312 12.15625 10.175781 24.050781 10.175781 24.851563 0 24.851563-21.746094 49.699219-21.746094 17.996094 0 22.964844 11.398438 33.769531 17.691406l100.636719-177.445312zm0 0" fill="#edc872"/><path d="m290.625 323.878906c6.253906-10.78125-7.371094-30.367187-30.433594-43.742187-23.058594-13.378907-46.824218-15.480469-53.078125-4.699219l-.632812 1.085938-123.519531 217.671874c6.003906 5.242188 12.207031 10.304688 24.199218 10.304688 20.21875 0 23.988282-14.390625 38.070313-19.757812l92.3125-165.5625c23.0625 13.378906 46.828125 15.480468 53.082031 4.699218zm0 0" fill="#faeccb"/><path d="m260.191406 280.136719c-20.390625-11.828125-41.320312-14.835938-50.222656-7.921875 5.59375 1.914062 11.429688 4.5625 17.222656 7.921875 23.0625 13.375 36.6875 32.960937 30.433594 43.742187-.722656 1.25-1.691406 2.316406-2.859375 3.222656 16.675781 5.699219 31.175781 4.851563 35.859375-3.222656 6.253906-10.78125-7.371094-30.367187-30.433594-43.742187zm0 0" fill="#fae4b1"/><g fill="#060606"><path d="m455.054688 375.253906c9.609374 0 14.160156 3.980469 19.917968 9.019532 6.480469 5.667968 14.546875 12.726562 29.792969 12.726562 9.652344 0 9.71875-15 0-15-9.609375 0-14.160156-3.980469-19.917969-9.015625-6.480468-5.671875-14.546875-12.730469-29.792968-12.730469-9.652344 0-9.71875 15 0 15zm0 0"/><path d="m504.765625 439c-9.609375 0-14.160156-3.980469-19.917969-9.015625-18.566406-16.246094-41.011718-16.246094-59.582031 0-12.992187 11.367187-26.824219 11.371094-39.824219 0-18.5625-16.246094-41.011718-16.246094-59.574218 0-12.71875 11.125-26.582032 11.570313-39.425782.347656l18.867188-33.367187c.210937.019531.425781.035156.644531.035156 15.242187 0 23.308594-7.058594 29.789063-12.726562 12.992187-11.371094 26.828124-11.375 39.824218 0 6.480469 5.667968 14.546875 12.726562 29.789063 12.726562 4.144531 0 7.5-3.355469 7.5-7.5s-3.355469-7.5-7.5-7.5c-9.605469 0-14.152344-3.980469-19.914063-9.015625-18.566406-16.246094-41.007812-16.246094-59.574218 0-3.710938 3.246094-6.929688 6.046875-11.3125 7.632813l32.308593-57.144532c15.496094-26.71875 8.238281-60.484375-15.765625-78.691406l55.585938-95.839844c2.691406 1.453125 5.640625 2.199219 8.632812 2.199219 1.578125 0 3.164063-.203125 4.730469-.621094 4.722656-1.253906 8.671875-4.273437 11.125-8.5l5.570313-9.605469c5.058593-8.726562 2.078124-19.941406-6.648438-25l-12.453125-7.222656 39.292969-67.742187c1-1.722657 1.273437-3.769531.761718-5.691407-.511718-1.921874-1.765624-3.5625-3.484374-4.558593l-36.527344-21.1875c-1.722656-.996094-3.769532-1.269531-5.6875-.761719-1.921875.511719-3.566406 1.765625-4.5625 3.488281l-39.292969 67.738281-12.453125-7.222656c-8.722656-5.058594-19.9375-2.078125-25.003906 6.648438l-5.566406 9.601562c-4.960938 8.554688-2.179688 19.488282 6.152343 24.683594l-55.59375 95.847656c-27.726562-11.796875-60.640625-1.328125-76.160156 25.425782l-14.1875 24.816406c-4.789063 8.378906 8.199219 15.882812 13.023437 7.445312l14.164063-24.773437c12.621094-21.761719 40.59375-29.195313 62.355469-16.574219 3.582031 2.078125 8.171875.859375 10.25-2.726562l59.109375-101.910157 49.46875 28.695313-59.109375 101.910156c-2.03125 3.503906-.785156 8.210938 2.726562 10.25 21.761719 12.621094 29.195313 40.59375 16.53125 62.425781l-91.335937 161.53125c-15.4375 5.609375-23.40625 23.0625-42.023438 18.808594 0 0 95.816407-167.75 96.625-168.71875 8.601563-14.828125-5.652343-38.039063-33.15625-53.992187-27.503906-15.953126-54.730469-16.804688-63.332031-1.972657l-.664062 1.148438-119.027344 209.988281c-5.566406-4.054688-12.734375-7.558594-23.472656-7.558594-1.023438 0-2.007813.039063-2.96875.097656l103.277343-180.628906c4.789063-8.382812-8.199219-15.882812-13.023437-7.445312l-51.703125 90.425781c-1.980469-1.386719-3.851563-3.023437-5.792969-4.71875-18.566406-16.246094-41.007812-16.246094-59.574219 0-5.757812 5.039063-10.304687 9.015625-19.910156 9.015625-9.652344 0-9.71875 15 0 15 15.242187 0 23.308594-7.058594 29.785156-12.726562 12.992188-11.371094 26.828125-11.375 39.820313 0 2.421875 2.113281 5.078125 4.421874 8.210937 6.480468l-16.121093 28.195313c-3.71875-1.132813-7.6875-1.695313-12-1.695313-15.242188 0-23.308594 7.058594-29.789063 12.730469-5.753906 5.039063-10.300781 9.015625-19.90625 9.015625-9.652344 0-9.71875 15 0 15 15.242187 0 23.308594-7.058594 29.785156-12.726562 5.757813-5.039063 10.304688-9.019532 19.910157-9.019532 1.496093 0 2.894531.101563 4.222656.292969l-29.535156 51.660156c-1.597657 1.265625-3.078126 2.550781-4.476563 3.773438-5.753906 5.042969-10.300781 9.019531-19.90625 9.019531-9.652344 0-9.71875 15 0 15 15.242187 0 23.308594-7.058594 29.785156-12.726562 13.046875-11.421876 26.824219-11.375 39.820313 0 18.566406 16.242187 41.011718 16.246093 59.578125 0 12.992187-11.371094 26.828125-11.375 39.820312 0 18.570313 16.242187 41.011719 16.246093 59.574219-.003907 12.992188-11.367187 26.824219-11.371093 39.820312.003907 6.480469 5.667968 14.542969 12.726562 29.789063 12.726562 9.652344 0 9.71875-15 0-15-9.609375 0-14.15625-3.980469-19.914063-9.015625-5.785156-5.0625-12.847656-11.214844-25.140624-12.480469l18.015624-31.863281c17.800782 14.949219 39.988282 12.363281 56.828126-2.367187 12.988281-11.371094 26.824218-11.375 39.820312 0 18.566406 16.246093 41.015625 16.246093 59.578125 0 12.996094-11.371094 26.832031-11.375 39.828125 0 6.484375 5.667968 14.550781 12.726562 29.796875 12.726562 9.652344 0 9.71875-15 0-15zm-108.121094-421.25 23.550781 13.660156-35.527343 61.253906-23.550781-13.660156zm-78.554687 70.277344 5.570312-9.601563c.609375-1.050781 1.71875-1.640625 2.855469-1.640625.5625 0 1.128906.144532 1.648437.445313l74.402344 43.152343c1.570313.914063 2.109375 2.933594 1.199219 4.503907l-5.570313 9.605469c-.597656 1.027343-1.511718 1.398437-2.003906 1.53125-.488281.128906-1.472656.261718-2.5-.335938l-37.203125-21.578125-31.222656-18.109375c-.003906 0-.003906-.003906-.007813-.003906l-5.972656-3.464844c-1.570312-.910156-2.105468-2.929688-1.195312-4.503906zm-191.015625 399.957031c-5.757813 5.035156-10.304688 9.015625-19.914063 9.015625-6.476562 0-10.652344-1.8125-14.453125-4.539062l120.265625-212.175782.625-1.085937c3.015625-5.1875 21.628906-4.875 42.832032 7.421875 21.203124 12.300781 30.71875 28.304687 27.710937 33.496094-3.011719 5.1875-21.628906 4.875-42.832031-7.421876-3.550782-2.0625-8.324219-.75-10.320313 2.84375l-90.542969 163.09375c-5.613281 2.5625-9.742187 6.171876-13.371093 9.351563zm32.359375-12.652344 81.082031-146.050781c11.925781 5.878906 23.507813 8.871094 33.234375 8.933594l-86.199219 150.554687c-.300781-.261719-.597656-.519531-.902343-.785156-6.105469-5.34375-13.621094-11.910156-27.214844-12.652344zm0 0"/><path d="m504.765625 497c-9.609375 0-14.160156-3.980469-19.917969-9.015625-18.566406-16.246094-41.011718-16.246094-59.582031 0-12.992187 11.367187-26.824219 11.371094-39.824219 0-6.476562-5.671875-14.542968-12.730469-29.789062-12.730469-9.652344 0-9.71875 15 0 15 9.609375 0 14.15625 3.980469 19.914062 9.019532 18.566406 16.242187 41.011719 16.246093 59.578125 0 12.992188-11.371094 26.828125-11.375 39.828125 0 6.480469 5.667968 14.546875 12.726562 29.792969 12.726562 9.652344 0 9.71875-15 0-15zm0 0"/></g></svg>