<svg height="512pt" viewBox="0 -14 512 512" width="512pt" xmlns="http://www.w3.org/2000/svg"><path d="m270.644531 7.5c-97.871093 0-181.683593 60.359375-216.550781 146.011719h-46.59375v35.945312h35.230469c-3.882813 16.96875-5.941407 34.636719-5.941407 52.789063 0 18.15625 2.058594 35.824218 5.941407 52.792968h-35.230469v35.945313h46.59375c34.867188 85.652344 118.679688 146.011719 216.550781 146.011719 129.15625 0 233.855469-105.101563 233.855469-234.75 0-129.644532-104.699219-234.746094-233.855469-234.746094zm0 0" fill="#c28a46"/><path d="m270.644531 7.5c-5.558593 0-11.070312.207031-16.53125.589844 121.46875 8.484375 217.386719 110.070312 217.386719 234.15625 0 124.089844-95.917969 225.675781-217.386719 234.160156 5.460938.382812 10.972657.585938 16.53125.585938 129.15625.003906 233.855469-105.097657 233.855469-234.746094 0-129.644532-104.699219-234.746094-233.855469-234.746094zm0 0" fill="#ad7b3e"/><path d="m326.246094 254.460938c-27.808594 0-27.808594-24.425782-55.613282-24.425782-27.800781 0-27.800781 24.425782-55.605468 24.425782-27.804688 0-27.804688-24.425782-55.609375-24.425782-12.402344 0-19.269531 4.859375-25.542969 10.242188-.007812.65625-.023438 1.3125-.023438 1.96875 0 75.71875 61.367188 137.316406 136.792969 137.316406 75.429688 0 136.796875-61.597656 136.796875-137.316406 0-.652344-.015625-1.304688-.027344-1.957032-6.277343-5.386718-13.144531-10.253906-25.554687-10.253906-27.808594 0-27.808594 24.425782-55.613281 24.425782zm0 0" fill="#9ad5fc"/><path d="m95.003906 145.929688c9.652344 0 9.667969-15 0-15-9.652344 0-9.667968 15 0 15zm0 0" fill="#060606"/><path d="m93.257812 350.527344c9.648438 0 9.667969-15 0-15-9.652343 0-9.667968 15 0 15zm0 0" fill="#060606"/><path d="m424.808594 366.855469-17.660156-17.726563c22.976562-29.503906 36.691406-66.613281 36.691406-106.882812 0-40.265625-13.714844-77.375-36.691406-106.878906l17.660156-17.726563c12.582031 3.488281 26.625.277344 36.515625-9.652344 14.636719-14.695312 14.636719-38.519531 0-53.214843-14.640625-14.695313-38.375-14.695313-53.011719 0-9.890625 9.929687-13.089844 24.023437-9.617188 36.65625l-17.242187 17.3125c-30.054687-25.175782-68.695313-40.347657-110.808594-40.347657-46.824219 0-89.363281 18.757813-120.566406 49.175781h-142.144531v35.941407h113.835937c-15.433593 25.992187-24.316406 56.339843-24.316406 88.734375 0 32.394531 8.882813 62.742187 24.316406 88.734375h-113.835937v35.945312h142.144531c31.203125 30.414063 73.742187 49.171875 120.566406 49.171875 42.113281 0 80.753907-15.167968 110.804688-40.34375l17.246093 17.308594c-3.472656 12.632812-.277343 26.726562 9.613282 36.65625 14.640625 14.695312 38.375 14.695312 53.011718 0 14.640626-14.695312 14.640626-38.519531 0-53.214844-9.886718-9.925781-23.929687-13.136718-36.511718-9.648437zm-154.164063 12.707031c-75.425781 0-136.792969-61.597656-136.792969-137.316406 0-75.714844 61.367188-137.3125 136.792969-137.3125 75.429688 0 136.796875 61.597656 136.796875 137.3125 0 75.71875-61.367187 137.316406-136.796875 137.316406zm0 0" fill="#ffd573"/><path d="m25.035156 189.457031h41.398438v105.582031h-41.398438zm0 0" fill="#ffd573"/><path d="m270.644531 104.933594c-74.773437 0-135.714843 60.53125-136.769531 135.34375 6.273438-5.382813 13.140625-10.242188 25.542969-10.242188 27.804687 0 27.804687 24.425782 55.609375 24.425782 27.800781 0 27.800781-24.425782 55.605468-24.425782 27.804688 0 27.804688 24.425782 55.613282 24.425782 27.804687 0 27.804687-24.425782 55.609375-24.425782 12.414062 0 19.28125 4.867188 25.558593 10.253906-1.046874-74.816406-61.992187-135.355468-136.769531-135.355468zm0 0" fill="#e6f2ff"/><g fill="#060606"><path d="m471.359375 107.6875c12.617187-17.617188 11.046875-42.375-4.722656-58.207031-8.5-8.527344-19.796875-13.226563-31.820313-13.226563-9.171875 0-17.921875 2.742188-25.328125 7.828125-40.777343-28.847656-88.703125-44.082031-138.84375-44.082031-81.960937 0-157.46875 41.121094-202.261719 110.066406h-60.449218c-4.140625 0-7.5 3.359375-7.5 7.5l-.433594 71.890625c0 4.140625 3.359375 7.5 7.5 7.5h10.035156v90.582031h-10.035156c-4.140625 0-7.5 3.359376-7.5 7.5l.433594 71.886719c0 4.144531 3.359375 7.5 7.5 7.5h18.066406c9.652344 0 9.71875-15 0-15h-10.566406v-20.941406h106.335937c5.707031 0 9.363281-6.421875 6.449219-11.328125-15.21875-25.632812-23.265625-54.996094-23.265625-84.90625 0-29.914062 8.046875-59.273438 23.265625-84.90625 2.914062-4.90625-.742188-11.328125-6.449219-11.328125h-106.335937v-20.945313h134.644531c9.652344 0 9.71875-15 0-15h-63.566406c42.542969-59.734374 110.566406-95.066406 184.132812-95.066406 46.082031 0 90.164063 13.722656 127.894531 39.734375-7.160156 9.828125-10.109374 22.230469-8.046874 34.300781l-9.59375 9.632813c-31.511719-24.40625-70.394532-37.773437-110.253907-37.773437-32.613281 0-64.601562 8.859374-92.507812 25.625-8.273438 4.96875-.605469 17.863281 7.726562 12.855468 25.570313-15.359375 54.890625-23.480468 84.78125-23.480468 38.640625 0 76.28125 13.707031 105.988281 38.59375 2.984376 2.5 7.382813 2.304687 10.132813-.457032l17.246094-17.308594c1.898437-1.910156 2.628906-4.6875 1.917969-7.285156-2.878907-10.460937.070312-21.714844 7.695312-29.371094 5.660156-5.683593 13.1875-8.8125 21.191406-8.8125s15.53125 3.128907 21.191406 8.8125c11.707032 11.753907 11.707032 30.875 0 42.628907-7.613281 7.640625-18.800781 10.597656-29.199218 7.714843-2.613282-.722656-5.40625.019532-7.316406 1.9375l-17.660157 17.726563c-2.667969 2.675781-2.925781 6.917969-.601562 9.902344 22.964843 29.488281 35.105469 64.855469 35.105469 102.269531 0 37.417969-12.140626 72.78125-35.105469 102.273438-2.324219 2.980468-2.066407 7.222656.601562 9.902343l17.660157 17.726563c1.910156 1.917968 4.707031 2.660156 7.316406 1.933594 10.394531-2.878907 21.585937.074218 29.199218 7.71875 11.707032 11.75 11.707032 30.875 0 42.625-5.660156 5.683593-13.1875 8.816406-21.191406 8.816406s-15.53125-3.132813-21.195312-8.816406c-7.625-7.652344-10.570313-18.90625-7.695313-29.371094.714844-2.59375-.015625-5.375-1.917969-7.28125l-17.246093-17.3125c-2.746094-2.757813-7.144531-2.953125-10.128907-.457032-29.707031 24.890626-67.351562 38.597657-105.988281 38.597657-43.25 0-84.207031-16.707031-115.332031-47.046875-1.402344-1.363282-3.28125-2.128906-5.238281-2.128906h-86.574219c-9.652344 0-9.71875 15 0 15h4.90625c21.238281 32.667968 50.238281 59.984374 84.085938 79.097656 35.882812 20.261718 76.738281 30.972656 118.152343 30.972656 50.140625 0 98.066407-15.234375 138.84375-44.082031 7.40625 5.085937 16.15625 7.828125 25.328125 7.828125 12.019532 0 23.320313-4.699219 31.820313-13.230469 15.773437-15.832031 17.339843-40.601563 4.714843-58.21875 10.613282-15.917969 19.332032-33.042969 25.894532-50.96875 3.320312-9.0625-10.742188-14.28125-14.085938-5.15625-5.820312 15.902344-13.460937 31.136719-22.695312 45.378906-9.636719-6.699219-21.601563-9.402343-33.253906-7.402343l-10.167969-10.207032c22.460937-31.050781 34.292969-67.621094 34.292969-106.1875 0-38.570312-11.832032-75.144531-34.292969-106.191406l10.167969-10.207031c11.65625 2 23.628906-.707031 33.265624-7.414063 23.910157 36.851563 36.523438 79.527344 36.523438 123.804688 0 14.324218-1.335938 28.660156-3.972656 42.609375-1.789063 9.480469 12.933594 12.359375 14.742187 2.785156 2.804688-14.863281 4.230469-30.136719 4.230469-45.394531 0-48.230469-14.046875-94.683594-40.640625-134.558594zm-438.824219 89.269531h26.402344v90.582031h-26.402344zm76.597656-35.945312c-12.582031 25.125-19.179687 52.953125-19.179687 81.234375 0 28.285156 6.597656 56.113281 19.179687 81.238281h-94.132812v-20.945313h51.4375c4.140625 0 7.5-3.355468 7.5-7.5v-105.582031c0-4.144531-3.359375-7.5-7.5-7.5h-51.4375v-20.945312zm50.734376 279.449219c-28.890626-16.3125-54.019532-38.992188-73.328126-66.035157h60.523438c33.660156 31.734375 77.421875 49.175781 123.582031 49.175781 39.863281 0 78.746094-13.367187 110.253907-37.773437l9.59375 9.628906c-2.0625 12.074219.890624 24.476563 8.046874 34.304688-37.730468 26.011719-81.8125 39.734375-127.894531 39.734375-38.835937 0-77.140625-10.039063-110.777343-29.035156zm0 0"/><path d="m161.644531 147.457031c-.09375.105469-.183593.21875-.277343.324219-15.410157 17.898438-26.070313 39.007812-31.296876 61.734375-2.472656 10.714844-3.71875 21.734375-3.71875 32.730469 0 9.980468 1.011719 19.730468 2.9375 29.148437 13.234376 64.753907 69.671876 113.886719 137.636719 115.621094 2.480469.0625 4.960938.0625 7.4375 0 67.96875-1.734375 124.402344-50.867187 137.640625-115.621094 1.925782-9.417969 2.9375-19.164062 2.9375-29.148437 0-10.988282-1.238281-22.015625-3.71875-32.722656-5.226562-22.734376-15.890625-43.855469-31.3125-61.757813-5.367187-6.242187-11.269531-12.039063-17.613281-17.289063-21.054687-17.460937-46.300781-28.429687-73.238281-31.871093-12.203125-1.578125-24.632813-1.5625-36.835938 0-26.925781 3.441406-52.160156 14.402343-73.210937 31.855469-6.25 5.164062-12.0625 10.871093-17.367188 16.996093zm-18.410156 72.679688c9.433594-55.21875 55.160156-99.445313 110.808594-106.636719 33.117187-4.230469 67.097656 4.640625 93.839843 24.703125 27.914063 20.941406 46.65625 52.945313 51.015626 87.59375-5.367188-2.28125-11.226563-3.261719-17.042969-3.261719-16.726563 0-25.613281 7.808594-32.753907 14.078125-6.582031 5.78125-11.78125 10.347657-22.855468 10.347657-11.078125 0-16.277344-4.566407-22.855469-10.347657-9.554687-8.390625-19.664063-14.078125-32.757813-14.078125-13.097656 0-23.195312 5.683594-32.75 14.078125-14.878906 13.070313-30.824218 13.074219-45.710937 0-7.140625-6.269531-16.023437-14.078125-32.753906-14.078125-5.808594 0-11.664063.972656-17.027344 3.253906.238281-1.886718.523437-3.777343.84375-5.652343zm124.089844 151.886719c-68.351563-1.742188-124.664063-59.085938-125.941407-127.300782-.101562-5.234375 14.53125-7.1875 18.035157-7.1875 11.074219 0 16.273437 4.566406 22.855469 10.347656 9.550781 8.390626 19.664062 14.078126 32.753906 14.078126 13.097656 0 23.199218-5.683594 32.753906-14.078126 14.878906-13.070312 30.820312-13.074218 45.707031 0 7.140625 6.269532 16.027344 14.078126 32.753907 14.078126 16.730468 0 25.617187-7.808594 32.757812-14.078126 6.582031-5.78125 11.777344-10.347656 22.855469-10.347656 6.460937 0 13.582031 1.152344 18.144531 5.710938-1.613281 33.824218-13.164062 65.484375-37.222656 89.957031-24.863282 25.292969-59.960938 39.722656-95.453125 38.820313zm0 0"/><path d="m272.394531 30.148438c-9.652343 0-9.667969 15 0 15 9.648438 0 9.664063-15 0-15zm0 0"/><path d="m170.246094 56.683594c-9.652344 0-9.667969 15 0 15 9.652344 0 9.667968-15 0-15zm0 0"/><path d="m167.222656 411.058594c-9.652344 0-9.667968 15 0 15 9.648438 0 9.667969-15 0-15zm0 0"/><path d="m268.898438 439.347656c-9.652344 0-9.667969 15 0 15 9.652343 0 9.667968-15 0-15zm0 0"/><path d="m371.042969 412.8125c-9.652344 0-9.667969 15 0 15 9.652343 0 9.667969-15 0-15zm0 0"/><path d="m446.285156 338.566406c-9.648437 0-9.667968 15 0 15 9.652344 0 9.667969-15 0-15zm0 0"/><path d="m474.46875 251.503906c9.652344 0 9.667969-15 0-15-9.652344 0-9.667969 15 0 15zm0 0"/><path d="m448.035156 133.96875c-9.652344 0-9.667968 15 0 15 9.652344 0 9.667969-15 0-15zm0 0"/><path d="m374.070312 58.4375c-9.652343 0-9.667968 15 0 15 9.652344 0 9.667969-15 0-15zm0 0"/><path d="m429.816406 96.46875 17.34375-17.410156c6.8125-6.839844-3.804687-17.4375-10.628906-10.585938l-17.34375 17.410156c-6.808594 6.835938 3.804688 17.433594 10.628906 10.585938zm0 0"/><path d="m442.964844 417.671875c1.914062 0 3.832031-.730469 5.292968-2.1875 2.933594-2.925781 2.941407-7.671875.019532-10.605469l-17.34375-17.410156c-2.921875-2.9375-7.671875-2.945312-10.605469-.023438-2.933594 2.925782-2.945313 7.671876-.019531 10.609376l17.34375 17.410156c1.464844 1.472656 3.386718 2.207031 5.3125 2.207031zm0 0"/></g></svg>