<svg height="512pt" viewBox="0 0 512 512" width="512pt" xmlns="http://www.w3.org/2000/svg"><path d="m504.5 218.332031v243.621094c0 23.496094-19.050781 42.546875-42.546875 42.546875h-411.90625c-23.496094 0-42.546875-19.050781-42.546875-42.546875v-243.621094zm0 0" fill="#c28a46"/><path d="m471.5 218.332031v243.621094c0 23.496094-19.050781 42.546875-42.546875 42.546875h33c23.496094 0 42.546875-19.050781 42.546875-42.546875v-243.621094zm0 0" fill="#ad7b3e"/><path d="m193 223.292969h-185.5v-92.453125c0-62.042969 50.296875-112.339844 112.339844-112.339844h272.320312c62.042969 0 112.339844 50.296875 112.339844 112.339844v92.453125h-186.5" fill="#c28a46"/><path d="m392.160156 18.5h-33c62.042969 0 112.339844 50.296875 112.339844 112.339844v90.453125h33v-90.453125c0-62.042969-50.296875-112.339844-112.339844-112.339844zm0 0" fill="#ad7b3e"/><path d="m120.875 7.5h33.601562v217h-33.601562zm0 0" fill="#ffd573"/><path d="m357.523438 7.5h33.601562v215h-33.601562zm0 0" fill="#ffd573"/><path d="m46.660156 418.5h-39.160156v43.453125c0 23.496094 19.050781 42.546875 42.546875 42.546875h38.453125v-44.160156c0-23.109375-18.730469-41.839844-41.839844-41.839844zm0 0" fill="#ffc338"/><path d="m423.5 460.339844v44.160156h38.453125c23.496094 0 42.546875-19.050781 42.546875-42.546875v-43.453125h-39.160156c-23.109375 0-41.839844 18.730469-41.839844 41.839844zm0 0" fill="#ffc338"/><path d="m471.5 418.5v43.453125c0 23.496094-19.050781 42.546875-42.546875 42.546875h33c23.496094 0 42.546875-19.050781 42.546875-42.546875v-43.453125zm0 0" fill="#f5b41d"/><path d="m319.5 251.5h185v-33.167969h-497v33.167969zm0 0" fill="#ffc338"/><path d="m471.5 218.332031h33v33.167969h-33zm0 0" fill="#f5b41d"/><path d="m318 302.332031h-124v-97.832031c0-34.242188 27.757812-62 62-62s62 27.757812 62 62zm0 0" fill="#ffd573"/><g fill="#060606"><path d="m512 130.839844c0-63.910156-50.289062-116.292969-113.375-119.664063v-3.675781c0-4.144531-3.355469-7.5-7.5-7.5h-33.601562c-4.140626 0-7.5 3.355469-7.5 7.5v3.5h-188.046876v-3.5c0-4.144531-3.359374-7.5-7.5-7.5h-33.601562c-4.144531 0-7.5 3.355469-7.5 7.5v3.675781c-63.085938 3.371094-113.375 55.753907-113.375 119.664063v86.453125c0 .175781.015625.347656.0273438.519531-.0117188.171875-.0273438.34375-.0273438.519531v243.621094c0 27.597656 22.449219 50.046875 50.046875 50.046875h411.90625c27.597656 0 50.046875-22.449219 50.046875-50.046875v-42.953125c0-4.238281-3.0625-8-7.5-8h-39.160156c-21.851563 0-40.417969 14.28125-46.886719 34h-49.953125c-9.652344 0-9.71875 15 0 15h47.507812c0 .113281-.007812.226562-.007812.339844v36.660156h-320v-36.660156c0-.113282-.007812-.226563-.007812-.339844h163.507812c9.652344 0 9.71875-15 0-15h-165.953125c-6.464844-19.71875-25.035156-34-46.886719-34h-31.660156v-50h181.5c9.652344 0 9.71875-15 0-15h-181.5v-36h71.5c9.652344 0 9.71875-15 0-15h-71.5v-36h171.5v43.332031c0 4.144531 3.355469 7.5 7.5 7.5h124c4.144531 0 7.5-3.355469 7.5-7.5v-43.332031h171c.167969 0 .335938-.015625.5-.023438v36.023438h-132.5c-9.652344 0-9.71875 15 0 15h132.5v36h-236.5c-9.652344 0-9.71875 15 0 15h236.5v19c0 9.652344 15 9.71875 15 0v-161.667969c0-.175781-.015625-.347656-.027344-.519531.011719-.171875.027344-.34375.027344-.519531zm-15 0v78.953125h-98.375v-183.589844c54.808594 3.355469 98.375 49 98.375 104.636719zm-113.375-115.839844v194.792969h-18.601562v-194.792969zm-236.648438 0v50c0 9.652344 15 9.71875 15 0v-39h188.050782v183.792969h-24.527344v-5.292969c0-38.320312-31.179688-69.5-69.5-69.5s-69.5 31.179688-69.5 69.5v5.292969h-24.523438v-106.792969c0-9.652344-15-9.71875-15 0v106.792969h-18.601562v-194.792969zm-131.976562 115.839844c0-55.636719 43.566406-101.28125 98.375-104.632813v183.589844h-98.375zm416 329.5c0-18.9375 15.402344-34.339844 34.339844-34.339844h31.660156v35.953125c0 19.324219-15.722656 35.046875-35.046875 35.046875h-30.953125zm-384.339844-34.339844c18.9375 0 34.339844 15.402344 34.339844 34.339844v36.660156h-30.953125c-19.324219 0-35.046875-15.722656-35.046875-35.046875v-35.953125zm-31.660156-182v-18.167969h104.304688c.507812.109375 1.03125.167969 1.570312.167969h33.601562c.535157 0 1.0625-.058594 1.566407-.167969h30.457031v18.167969zm295.5 50.832031h-109v-90.332031c0-30.050781 24.449219-54.5 54.5-54.5s54.5 24.449219 54.5 54.5zm186-50.832031h-171v-18.167969h30.457031c.507813.109375 1.03125.167969 1.570313.167969h33.597656c.539062 0 1.0625-.058594 1.570312-.167969h104.304688v18.191407c-.164062-.007813-.332031-.023438-.5-.023438zm0 0"/><path d="m254.5 207c-4.144531 0-7.5 3.355469-7.5 7.5v40c0 9.652344 15 9.71875 15 0v-40c0-4.144531-3.355469-7.5-7.5-7.5zm0 0"/><path d="m136.5 396c-4.144531 0-7.5 3.355469-7.5 7.5s3.355469 7.5 7.5 7.5h262c4.144531 0 7.5-3.355469 7.5-7.5s-3.355469-7.5-7.5-7.5zm0 0"/></g></svg>