<svg id="Capa_1" enable-background="new 0 0 510.458 510.458" height="512" viewBox="0 0 510.458 510.458" width="512" xmlns="http://www.w3.org/2000/svg"><g><g><path d="m237.309 499.096-57.425-25.965c-65.76-29.734-108.018-95.218-108.018-167.387v-220.357c0-7.146 4.473-13.528 11.191-15.965l167.878-60.913c3.741-1.357 7.842-1.347 11.576.031l164.973 60.846c6.674 2.461 11.107 8.821 11.107 15.934v220.423c0 72.17-42.258 137.654-108.018 167.387l-57.425 25.965c-11.39 5.152-24.447 5.152-35.839.001z" fill="#86e8d0"/><path d="m238.505 444.663c-65.76-29.734-108.018-95.218-108.018-167.387v-220.357c0-1.719.265-3.393.752-4.979l-48.181 17.482c-6.718 2.438-11.191 8.819-11.191 15.965v220.357c0 72.17 42.258 137.654 108.018 167.387l57.425 25.965c11.391 5.151 24.448 5.151 35.839 0l42.822-19.362z" fill="#5de1c4"/><path d="m253.991 466.861c-.655-.103-1.29-.315-1.895-.589l-57.38-25.945c-52.759-23.854-86.85-76.683-86.85-134.585v-198.416c0-5.168 3.235-9.783 8.093-11.546l136.575-49.556c2.642-.959 5.538-.951 8.175.022l133.848 49.366c4.826 1.78 8.032 6.379 8.032 11.524v198.607c0 57.902-34.09 110.73-86.849 134.585l-57.425 25.965c-1.349.611-2.815.805-4.324.568z" fill="#faf7f7"/><path d="m238.505 444.663c-65.76-29.734-108.018-95.218-108.018-167.387v-186.767l-15.254 5.535c-4.422 1.604-7.366 5.805-7.366 10.509v199.19c0 57.902 34.09 110.73 86.85 134.585l57.38 25.945c.604.273 1.24.486 1.895.588 1.509.236 2.974.043 4.325-.568l13.992-6.326z" fill="#f9f3f1"/><g><circle cx="259.04" cy="250.368" fill="#f79595" r="78.729"/><g fill="#f37c7c"><circle cx="318.096" cy="149.666" r="13.966"/><circle cx="358.519" cy="311.462" r="13.966"/><circle cx="254.287" cy="367.012" r="13.966"/><circle cx="154.921" cy="303.165" r="13.966"/><circle cx="162.131" cy="185.275" r="13.966"/><circle cx="249.174" cy="229.366" r="23.05"/></g></g></g><g><path d="m430.08 62.35-164.973-60.848c-5.389-1.987-11.33-2.004-16.729-.043l-89.958 32.641c-3.894 1.412-5.905 5.714-4.492 9.608 1.412 3.893 5.715 5.905 9.608 4.491l89.957-32.641c2.073-.751 4.355-.746 6.423.018l164.972 60.846c3.709 1.369 6.202 4.944 6.202 8.898v220.424c0 69.074-40.668 132.095-103.607 160.553l-57.425 25.965c-9.424 4.262-20.234 4.262-29.66 0l-57.424-25.965c-62.939-28.458-103.607-91.479-103.607-160.553v-220.357c0-3.976 2.511-7.559 6.249-8.915l47.833-17.355c3.894-1.412 5.905-5.714 4.492-9.607-1.413-3.895-5.715-5.907-9.608-4.492l-47.833 17.354c-9.649 3.501-16.133 12.75-16.133 23.015v220.357c0 74.954 44.13 143.34 112.428 174.221l57.424 25.965c6.677 3.02 13.842 4.528 21.01 4.528 7.166 0 14.335-1.51 21.01-4.528l57.424-25.965c68.297-30.881 112.428-99.267 112.428-174.221v-220.423c0-10.208-6.434-19.439-16.011-22.971z"/><path d="m214.712 457.6 34.342 15.528c1.954.883 4.031 1.331 6.176 1.331s4.224-.448 6.177-1.332l57.425-25.965c55.438-25.065 91.259-80.576 91.259-141.419v-122.973c0-4.143-3.358-7.5-7.5-7.5s-7.5 3.357-7.5 7.5v122.974c0 54.963-32.359 105.107-82.439 127.751l-57.418 25.966-34.342-15.528c-3.772-1.704-8.217-.03-9.924 3.744-1.707 3.773-.031 8.216 3.744 9.923z"/><path d="m410.091 98.575c0-3.142-1.958-5.949-4.905-7.037l-145.964-53.835c-1.662-.612-3.487-.617-5.153-.013l-148.76 53.977c-2.966 1.076-4.942 3.895-4.942 7.05v207.026c0 28.666 7.97 56.77 23.049 81.273 15.036 24.434 36.453 44.185 61.936 57.117 1.088.553 2.247.814 3.389.814 2.735-.001 5.372-1.502 6.694-4.107 1.875-3.694.4-8.208-3.293-10.082-23.016-11.682-42.363-29.526-55.95-51.604-13.623-22.139-20.824-47.523-20.824-73.412v-201.77l141.239-51.247 138.485 51.076v47.004c0 4.143 3.358 7.5 7.5 7.5s7.5-3.357 7.5-7.5v-52.23z"/><path d="m200.613 341.3c1.254.807 2.659 1.191 4.047 1.191 2.467 0 4.884-1.217 6.316-3.446l7.954-12.379c8.905 4.7 18.725 7.877 29.119 9.206l-.438 10.757c-2.887.943-5.572 2.479-7.873 4.598-4.216 3.886-6.667 9.182-6.9 14.91-.482 11.826 8.748 21.84 20.575 22.323.296.012.59.018.883.018 11.437 0 20.969-9.063 21.438-20.592.375-9.191-5.118-17.285-13.136-20.664l.437-10.728c10.526-.483 20.565-2.857 29.784-6.798l6.909 12.964c1.349 2.532 3.943 3.975 6.625 3.975 1.19 0 2.397-.284 3.521-.883 3.655-1.948 5.04-6.491 3.091-10.146l-6.928-13c8.592-5.609 16.135-12.694 22.244-20.914l9.194 5.647c-1.661 8.536 1.973 17.601 9.808 22.413 3.423 2.103 7.276 3.183 11.194 3.183 1.674 0 3.361-.197 5.031-.596 5.577-1.334 10.3-4.759 13.301-9.645 6.194-10.087 3.028-23.332-7.058-29.526-7.836-4.812-17.564-3.952-24.426 1.39l-9.188-5.643c4.513-8.99 7.51-18.866 8.628-29.301l14.685.299c.052.001.104.002.156.002 4.071 0 7.412-3.258 7.496-7.348.084-4.141-3.205-7.566-7.346-7.65l-14.701-.299c-.695-10.498-3.277-20.482-7.41-29.628l12.839-7.182c3.615-2.022 4.906-6.592 2.884-10.207-2.021-3.616-6.591-4.905-10.207-2.885l-12.845 7.185c-5.778-8.471-13.034-15.848-21.38-21.793l5.453-9.299c1.21.212 2.436.331 3.669.331 1.817 0 3.646-.232 5.451-.703 5.548-1.446 10.202-4.967 13.102-9.913 5.987-10.209 2.552-23.388-7.659-29.376-10.21-5.986-23.388-2.552-29.375 7.658-2.9 4.946-3.701 10.726-2.255 16.273.789 3.029 2.215 5.775 4.134 8.13l-5.44 9.276c-9.07-4.324-19.011-7.094-29.478-8.001v-14.702c0-4.143-3.358-7.5-7.5-7.5s-7.5 3.357-7.5 7.5v14.702c-9.061.785-17.73 2.96-25.778 6.34l-3.638-7.36c-1.836-3.714-6.333-5.238-10.047-3.4-3.713 1.835-5.236 6.333-3.4 10.047l3.819 7.726c-7.794 5.019-14.731 11.249-20.539 18.437l-8.969-6.024c2.008-8.461-1.254-17.667-8.888-22.795-4.76-3.196-10.478-4.353-16.106-3.244-5.626 1.104-10.485 4.335-13.683 9.095-6.6 9.825-3.975 23.188 5.851 29.788 3.666 2.462 7.821 3.641 11.937 3.641 4.457 0 8.861-1.391 12.54-4.024l8.934 6.001c-4.887 8.818-8.276 18.572-9.815 28.926l-14.657-.896c-4.116-.225-7.69 2.894-7.943 7.028s2.894 7.691 7.028 7.944l14.683.898c.272 10.545 2.439 20.622 6.184 29.906l-9.609 4.873c-6.405-5.883-16.032-7.531-24.231-3.372-5.114 2.594-8.912 7.022-10.694 12.473-1.783 5.45-1.336 11.268 1.257 16.381 2.593 5.114 7.023 8.912 12.473 10.694 2.195.719 4.45 1.074 6.694 1.074 3.328 0 6.633-.783 9.687-2.331 5.114-2.594 8.912-7.022 10.695-12.473.973-2.974 1.258-6.055.916-9.074l9.614-4.875c5.437 8.71 12.384 16.377 20.472 22.646l-7.968 12.4c-2.239 3.487-1.229 8.127 2.256 10.366zm157.917-36.303c1.153 0 2.321.308 3.374.954 3.038 1.866 3.992 5.856 2.126 8.895-.904 1.472-2.327 2.503-4.007 2.904-1.679.405-3.416.125-4.887-.778-3.038-1.866-3.992-5.856-2.126-8.895 1.219-1.985 3.345-3.08 5.52-3.08zm-46.012-158.602c1.202-2.051 3.368-3.193 5.589-3.193 1.11 0 2.234.285 3.259.887 3.076 1.804 4.111 5.773 2.307 8.849-.874 1.49-2.275 2.551-3.946 2.986-1.671.436-3.412.194-4.903-.68-1.49-.874-2.55-2.275-2.985-3.946-.436-1.673-.195-3.413.679-4.903zm-153.992 44.248c-2.96-1.988-3.75-6.014-1.762-8.974.963-1.434 2.427-2.406 4.122-2.739.42-.083.841-.123 1.259-.123 1.271 0 2.513.375 3.592 1.1 2.96 1.989 3.751 6.014 1.763 8.974-1.989 2.958-6.016 3.749-8.974 1.762zm2.541 114.532c-.537 1.642-1.681 2.976-3.221 3.757-1.541.782-3.293.918-4.935.379-1.642-.536-2.976-1.681-3.757-3.221-.781-1.541-.916-3.293-.378-4.935.537-1.642 1.681-2.977 3.221-3.757.935-.475 1.932-.698 2.914-.698 2.36 0 4.639 1.295 5.778 3.54.78 1.541.914 3.294.378 4.935zm92.957 68.298c-3.563-.145-6.343-3.161-6.198-6.724.07-1.727.809-3.321 2.079-4.491 1.204-1.109 2.748-1.712 4.375-1.712.09 0 .18.002.27.006 3.562.145 6.343 3.161 6.198 6.724-.145 3.562-3.179 6.339-6.724 6.197zm-66.212-123.105c0-39.276 31.953-71.229 71.229-71.229s71.229 31.953 71.229 71.229c0 39.275-31.953 71.229-71.229 71.229s-71.229-31.953-71.229-71.229z"/><path d="m249.173 259.916c16.846 0 30.55-13.705 30.55-30.55 0-16.846-13.705-30.551-30.55-30.551s-30.55 13.705-30.55 30.551c.001 16.845 13.705 30.55 30.55 30.55zm0-46.1c8.574 0 15.55 6.976 15.55 15.551 0 8.574-6.976 15.55-15.55 15.55s-15.55-6.976-15.55-15.55c.001-8.576 6.976-15.551 15.55-15.551z"/><path d="m249.173 281.697h-5.639c-4.142 0-7.5 3.357-7.5 7.5s3.358 7.5 7.5 7.5h5.639c4.142 0 7.5-3.357 7.5-7.5s-3.357-7.5-7.5-7.5z"/><path d="m292.178 266.999h4.831c4.142 0 7.5-3.357 7.5-7.5s-3.358-7.5-7.5-7.5h-4.831c-4.142 0-7.5 3.357-7.5 7.5s3.358 7.5 7.5 7.5z"/></g></g></svg>