<svg xmlns="http://www.w3.org/2000/svg" xmlns:xlink="http://www.w3.org/1999/xlink" width="30.679" height="30.679" viewBox="0 0 30.679 30.679"><defs><style>.a{fill:none;}.b{clip-path:url(#a);}.c{fill:#faeccb;}.d{fill:#005aa5;}.e{fill:#09b3a5;}.f{fill:#edc872;}.g{fill:#060606;}</style><clipPath id="a"><rect class="a" width="30.679" height="30.679"/></clipPath></defs><g class="b" transform="translate(0 0)"><path class="c" d="M34.715,37.28H7.5V12.446H31.768V7.5h2.947a2.564,2.564,0,0,1,2.566,2.563V34.718A2.564,2.564,0,0,1,34.715,37.28Zm0,0" transform="translate(-7.051 -7.051)"/><path class="d" d="M69.67,145.525V126.5H64.247l-21.942.005V147H66.6c1.022,0,2.679-.307,3.1-1.445" transform="translate(-39.77 -118.92)"/><path class="e" d="M61.759,126.419s-4.414-.516-2.866,3.384c1.736,4.375-1.376,5.219-3.268,3.958s-4.185-.688-7.8.86A4.888,4.888,0,0,1,42,133.2v-6.771Zm0,0" transform="translate(-39.483 -118.823)"/><path class="e" d="M147.541,364.747s-.051-1.734-3.263-2.5-2.6-3.709-5.15-4-2.295,2.071-4.742,3.324a3.508,3.508,0,0,0-2.218,3.3Zm0,0" transform="translate(-124.243 -336.755)"/><path class="f" d="M413.984,8.7h2.771a2.651,2.651,0,0,1,2.653,2.65V35.754a2.652,2.652,0,0,0-2.653-2.65h-2.771Z" transform="translate(-389.178 -8.174)"/><path class="g" d="M27.664,0H24.718a.449.449,0,0,0-.449.449v4.5H.449A.45.45,0,0,0,0,5.4v20.07a.45.45,0,0,0,.9,0V5.845H24.357v1.29H2.535a.449.449,0,0,0-.449.449V28.08a.449.449,0,0,0,.449.449h24.3a4.555,4.555,0,0,0,2.948-.91,2.2,2.2,0,0,1-2.2,2.161H.9V28.222a.45.45,0,0,0-.9,0V30.23a.45.45,0,0,0,.449.449H27.664a3.017,3.017,0,0,0,3.015-3.012V3.012A3.017,3.017,0,0,0,27.664,0Zm-8.5,8.034c-.035.039-.069.078-.1.12a2.958,2.958,0,0,0-.069,2.992c.662,1.668.629,2.958-.089,3.539a2.2,2.2,0,0,1-2.511-.121c-2.075-1.384-4.491-.779-8.223.821a4.176,4.176,0,0,1-5.11-1.033.446.446,0,0,0-.074-.077V8.034ZM8.394,27.63a3.287,3.287,0,0,1,1.954-2.418,6.3,6.3,0,0,0,2.229-2.034c.651-.861,1.043-1.381,2.257-1.243,1.021.116,1.407.708,1.942,1.528a4.855,4.855,0,0,0,3.153,2.46c1.906.457,2.568,1.239,2.8,1.707Zm19.183-3.15H25.255V15.639a.45.45,0,0,0-.9,0V24.93a.449.449,0,0,0,.449.449h2.771A2.205,2.205,0,0,1,29.5,26.5c-.353.888-1.837,1.126-2.666,1.126H23.683c-.181-.628-.876-1.94-3.544-2.581a3.945,3.945,0,0,1-2.61-2.077,3.4,3.4,0,0,0-2.594-1.93,3.024,3.024,0,0,0-3.075,1.594,5.4,5.4,0,0,1-1.922,1.776A4.11,4.11,0,0,0,7.489,27.63h-4.5V15.544a5.223,5.223,0,0,0,.98.648,4.883,4.883,0,0,0,2.223.53,5.9,5.9,0,0,0,2.335-.51c3.442-1.476,5.636-2.056,7.37-.9a3.066,3.066,0,0,0,3.575.073c.614-.5,1.478-1.751.359-4.57-.378-.954-.4-1.664-.054-2.111a2.34,2.34,0,0,1,1.669-.668h2.914v4.908a.45.45,0,0,0,.9,0V.9h2.409A2.117,2.117,0,0,1,29.78,3.012V25.4A3.1,3.1,0,0,0,27.577,24.48Zm0,0"/></g></svg>