<svg id="Layer_1" enable-background="new 0 0 64 64" height="512" viewBox="0 0 64 64" width="512" xmlns="http://www.w3.org/2000/svg"><g><g clip-rule="evenodd" fill-rule="evenodd"><path d="m38.044 10.309c1.772.486 3.458 1.2 5.03 2.087l5.829-3.401 6.116 6.116-3.401 5.83c.887 1.571 1.601 3.258 2.087 5.029l6.516 1.715v8.659l-6.516 1.715c-.486 1.771-1.2 3.458-2.087 5.029l3.401 5.83-6.116 6.116-5.829-3.4c-1.572.886-3.258 1.6-5.03 2.086l-1.715 6.516h-8.659l-1.714-6.516c-1.772-.486-3.458-1.2-5.03-2.086l-5.83 3.4-6.116-6.116 3.4-5.83c-.886-1.571-1.6-3.258-2.086-5.029l-6.516-1.715v-8.659l6.516-1.715c.486-1.771 1.2-3.458 2.086-5.029l-3.4-5.83 6.115-6.116 5.83 3.401c1.572-.887 3.258-1.601 5.03-2.087l1.714-6.544h8.659zm-6.029 11.888c5.4 0 9.802 4.401 9.802 9.803 0 5.43-4.401 9.803-9.802 9.803-5.431 0-9.803-4.373-9.803-9.803 0-5.401 4.372-9.803 9.803-9.803z" fill="#e9c845"/><g fill="#e3ba16"><path d="m26.384 8.737 1.286-4.973h2.915l-1 3.801c-1.114.315-2.172.715-3.201 1.172z"/><path d="m10.924 24.026c.4-1.086.886-2.114 1.457-3.086l-3.4-5.83 6.115-6.116.572.314-3.059 3.087 3.401 5.801c-.886 1.572-1.601 3.258-2.086 5.059z"/><path d="m37.044 57.521-.715 2.715h-8.659l-1.714-6.516c-1.772-.486-3.458-1.2-5.03-2.086l-5.83 3.4-6.116-6.116 3.4-5.83c-.886-1.571-1.6-3.258-2.086-5.029l-6.516-1.715v-8.659l3.629-.972v6.888l6.517 1.715c.485 1.771 1.2 3.486 2.086 5.058l-3.401 5.802 6.116 6.145 5.83-3.43c1.571.915 3.258 1.601 5.029 2.115l1.715 6.516h5.745z"/><path d="m51.962 51.977-3.059 3.058-5.829-3.4c-.572.313-1.2.628-1.801.914l.4-1.543c1.771-.515 3.458-1.2 5.029-2.115z"/></g></g><g><path d="m61.221 37.114v-10.2l-6.713-1.767c-.433-1.429-1.017-2.834-1.741-4.192l3.505-6.007-7.206-7.206-6.007 3.505c-1.358-.726-2.765-1.309-4.191-1.741l-1.767-6.741h-10.203l-1.766 6.741c-1.428.433-2.833 1.017-4.191 1.741l-6.008-3.505-2.202 2.202 1.414 1.414 1.112-1.112 5.66 3.303.499-.282c1.547-.873 3.163-1.544 4.804-1.994l.557-.152 1.665-6.355h7.115l1.665 6.355.557.153c1.64.449 3.256 1.12 4.804 1.993l.5.282 5.658-3.303 5.026 5.026-3.303 5.66.282.499c.872 1.546 1.543 3.162 1.994 4.803l.152.556 6.327 1.665v7.118l-6.327 1.665-.152.556c-.451 1.641-1.122 3.257-1.994 4.803l-.282.499 3.303 5.66-5.026 5.026-5.658-3.301-.5.281c-1.549.873-3.165 1.543-4.804 1.992l-.556.153-1.665 6.327h-7.117l-1.665-6.327-.556-.152c-1.64-.45-3.256-1.121-4.804-1.993l-.5-.281-5.659 3.301-5.025-5.026 3.302-5.659-.282-.5c-.873-1.549-1.543-3.164-1.992-4.803l-.152-.556-6.328-1.665v-7.118l6.328-1.665.152-.556c.449-1.639 1.119-3.254 1.992-4.803l.282-.5-3.302-5.659 1.142-1.142-1.414-1.413-2.232 2.231 3.505 6.008c-.725 1.359-1.309 2.765-1.74 4.191l-6.713 1.767v10.2l6.713 1.767c.432 1.427 1.016 2.832 1.74 4.191l-3.504 6.008 7.205 7.206 6.008-3.504c1.359.725 2.765 1.309 4.191 1.74l1.767 6.713h10.2l1.767-6.712c1.427-.433 2.833-1.017 4.192-1.741l6.007 3.504 7.206-7.206-3.505-6.007c.725-1.358 1.309-2.764 1.741-4.192z"/><path d="m41.055 37.917c1.152-1.777 1.762-3.823 1.762-5.917 0-5.957-4.846-10.803-10.802-10.803-5.957 0-10.803 4.846-10.803 10.803s4.846 10.803 10.803 10.803c2.092 0 4.138-.609 5.916-1.762l-1.088-1.678c-1.453.941-3.123 1.439-4.828 1.439-4.854 0-8.803-3.949-8.803-8.803s3.949-8.803 8.803-8.803 8.802 3.949 8.802 8.803c0 1.706-.498 3.376-1.439 4.829z"/></g></g></svg>