<svg xmlns="http://www.w3.org/2000/svg" width="13.905" height="16" viewBox="0 0 13.905 16"><g transform="translate(0 -1)"><g transform="translate(0 7.687)"><path d="M11.588,24.313H2.318A2.313,2.313,0,0,1,0,21.985V15.776A.794.794,0,0,1,.773,15a.794.794,0,0,1,.773.776v6.209a.794.794,0,0,0,.773.776h9.27a.794.794,0,0,0,.773-.776V15.776a.773.773,0,1,1,1.545,0v6.209A2.313,2.313,0,0,1,11.588,24.313Z" transform="translate(0 -15)"/></g><path d="M13.509,3.311,10.431.207c-.051-.052-.154-.155-.257-.155h0A.646.646,0,0,0,9.866,0,.382.382,0,0,0,9.61.052h0a1.12,1.12,0,0,0-.257.155l-3.079,3.1a.873.873,0,0,0-.051,1.138.918.918,0,0,0,1.129,0L9.1,2.639v8.226a.77.77,0,1,0,1.539,0V2.639L12.38,4.4a.651.651,0,0,0,.564.259.768.768,0,0,0,.564-.207A.938.938,0,0,0,13.509,3.311Z" transform="translate(-2.913 1)"/></g></svg>