<svg xmlns="http://www.w3.org/2000/svg" width="101.104" height="42.533" viewBox="0 0 101.104 42.533"><g transform="translate(0 -0.03)"><path d="M30.05,150.224l1.06-1.26a4.615,4.615,0,0,0,3.167,1.3c1.089,0,1.777-.5,1.777-1.26v-.029c0-.717-.4-1.1-2.266-1.533-2.136-.52-3.339-1.146-3.339-3v-.029c0-1.72,1.434-2.91,3.425-2.91a5.56,5.56,0,0,1,3.638,1.26l-.946,1.333a4.569,4.569,0,0,0-2.723-1.039c-1.039,0-1.634.52-1.634,1.19v.029c0,.78.46,1.117,2.38,1.577,2.125.525,3.243,1.286,3.243,2.949v.029c0,1.876-1.476,3-3.583,3a6.181,6.181,0,0,1-4.2-1.606Z" transform="translate(-30.05 -112.783)"/><path d="M64.41,156.375V151.56h1.733v4.3c0,1.174.587,1.847,1.619,1.847a1.668,1.668,0,0,0,1.7-1.876V151.56H71.2v7.566H69.469v-.78a2.983,2.983,0,0,1-2.365.938A2.6,2.6,0,0,1,64.41,156.375Z" transform="translate(-55.482 -120.225)"/><path d="M97.69,151.128h1.733v1.26c.473-1.133,1.346-1.463,2.679-1.406v1.538H102c-1.52,0-2.58,1.016-2.58,3.292v2.882H97.69Z" transform="translate(-80.115 -119.793)"/><path d="M117.06,151.56h1.863l2.035,5.267,2.063-5.267h1.819l-3.118,7.624h-1.559Z" transform="translate(-94.452 -120.225)"/><path d="M147,154.92v-.029a3.756,3.756,0,0,1,3.7-3.942c2.409,0,3.638,1.892,3.638,4.069,0,.159-.016.314-.029.488h-5.561a2.113,2.113,0,0,0,2.177,1.92,2.749,2.749,0,0,0,2.05-.9l1.019.9a3.827,3.827,0,0,1-3.095,1.419A3.779,3.779,0,0,1,147,154.92Zm5.6-.559a1.969,1.969,0,0,0-1.92-1.993,2.04,2.04,0,0,0-1.964,1.993Z" transform="translate(-116.612 -119.773)"/><path d="M210.57,142.07h1.876l3.053,5.119,3.053-5.119h1.879V152.1h-1.762V144.91l-3.167,5.1h-.057l-3.141-5.077V152.1H210.57Z" transform="translate(-163.664 -113.201)"/><path d="M253.3,154.962v-.029a4.035,4.035,0,0,1,8.068-.029v.029a3.957,3.957,0,0,1-4.056,3.942,3.913,3.913,0,0,1-4.012-3.913Zm6.335,0v-.029a2.341,2.341,0,0,0-2.323-2.437,2.284,2.284,0,0,0-2.271,2.409v.029a2.345,2.345,0,0,0,2.307,2.437A2.283,2.283,0,0,0,259.635,154.962Z" transform="translate(-195.291 -119.8)"/><path d="M321.68,140.42h1.733v6.249l3.139-3.355h2.107l-3,3.082,3.118,4.487h-2.006l-2.279-3.269-1.06,1.1v2.164H321.7Z" transform="translate(-245.904 -111.979)"/><path d="M348.39,154.92v-.029a3.756,3.756,0,0,1,3.7-3.942c2.409,0,3.638,1.892,3.638,4.069,0,.159-.016.314-.029.488h-5.561a2.113,2.113,0,0,0,2.177,1.92,2.746,2.746,0,0,0,2.05-.9l1.019.9a3.827,3.827,0,0,1-3.095,1.419A3.779,3.779,0,0,1,348.39,154.92Zm5.615-.559a1.969,1.969,0,0,0-1.92-1.993,2.049,2.049,0,0,0-1.964,1.993Z" transform="translate(-265.674 -119.773)"/><path d="M151.541,120.5l-2.094,5.163-2.081-5.163H145.56l2.98,7.395-1.556,3.835h1.806l4.558-11.23Z" transform="translate(-107.738 -89.167)"/><path d="M410.815,151.515a1.06,1.06,0,0,0-.52.133.977.977,0,0,0-.392.385,1.092,1.092,0,0,0-.138.52,1.039,1.039,0,0,0,.138.52.977.977,0,0,0,.387.385,1.039,1.039,0,0,0,1.039,0,.974.974,0,0,0,.385-.385,1.039,1.039,0,0,0,0-1.039.948.948,0,0,0-.387-.385,1.073,1.073,0,0,0-.52-.133m0-.205a1.263,1.263,0,0,1,.611.161,1.123,1.123,0,0,1,.468.46,1.237,1.237,0,0,1,0,1.242,1.175,1.175,0,0,1-.46.462,1.255,1.255,0,0,1-.618.164,1.281,1.281,0,0,1-.621-.164,1.175,1.175,0,0,1-.463-.463,1.263,1.263,0,0,1-.164-.616,1.234,1.234,0,0,1,.169-.624,1.136,1.136,0,0,1,.465-.46,1.276,1.276,0,0,1,.613-.161" transform="translate(-310.949 -120.04)"/><g transform="translate(99.338 31.815)"><path d="M412.36,153.408h.621a.561.561,0,0,1,.4.14.421.421,0,0,1,.114.3h0a.418.418,0,0,1-.33.421l.377.52h-.291l-.343-.486H412.6v.486h-.244Zm.6.691c.174,0,.286-.091.286-.234h0c0-.148-.107-.231-.288-.231H412.6v.468Z" transform="translate(-412.36 -153.407)"/></g><path d="M352.931,120.5l-2.094,5.163-2.081-5.163H346.95l2.983,7.395-1.556,3.835h1.806l4.555-11.23Z" transform="translate(-256.8 -89.167)"/><path d="M295.54,153.843v4.815h-1.733v-4.3c0-1.174-.587-1.847-1.619-1.847a1.668,1.668,0,0,0-1.7,1.876v4.272H288.75v-7.569h1.733v.78a2.983,2.983,0,0,1,2.365-.938A2.6,2.6,0,0,1,295.54,153.843Z" transform="translate(-221.53 -119.757)"/><path d="M187.8,44.251a3.944,3.944,0,0,0-.935.117,12.059,12.059,0,0,0-9.544-8.892c-.208-.036-.395-.065-.608-.091h0a3.946,3.946,0,0,1,1.764-3.638l-.26-.668s-3.264,1.013-3.638,3.809c-.164-.761-1.686-1.712-2.44-1.892l-.374.605a2.627,2.627,0,0,1,1.224,1.873h0a12.059,12.059,0,0,0-9.546,8.894,3.911,3.911,0,1,0,.494,7.434,11.994,11.994,0,0,0,1.271,2.365l3.245-2.188-.029-.036a7.991,7.991,0,0,1-1.471-4.344,5.793,5.793,0,0,1,1.476-4.6c2.339-2,4.9-1.089,6.5.829h.431c1.6-1.915,4.157-2.827,6.5-.829a5.78,5.78,0,0,1,1.476,4.6,8.012,8.012,0,0,1-1.471,4.344l-.029.036,3.245,2.188a11.994,11.994,0,0,0,1.271-2.365,3.911,3.911,0,1,0,1.455-7.553Zm-25.36,5.064a1.154,1.154,0,1,1,.647-2.107,17.537,17.537,0,0,0,.122,1.819A1.154,1.154,0,0,1,162.439,49.315Zm25.438,0a1.154,1.154,0,0,1-.78-.3,17.533,17.533,0,0,0,.122-1.819,1.156,1.156,0,1,1,.657,2.115Z" transform="translate(-125.191 -31.05)"/></g></svg>