<svg xmlns="http://www.w3.org/2000/svg" xmlns:xlink="http://www.w3.org/1999/xlink" width="37.05" height="48.64" viewBox="0 0 37.05 48.64"><defs><style>.a{fill:none;}.b{clip-path:url(#a);}.c{fill:#0093bb;}.d{fill:#005aa5;}.e{fill:#ffd322;}.f{fill:#edbe00;}.g{fill:#daaf00;}.h{fill:#2a2e43;stroke:rgba(0,0,0,0);font-size:13px;font-family:Helvetica-Bold, Helvetica;font-weight:700;}.i{filter:url(#b);}</style><clipPath id="a"><rect class="a" width="37.05" height="48.64"/></clipPath><filter id="b" x="1.05" y="6" width="35" height="33" filterUnits="userSpaceOnUse"><feOffset dy="3" input="SourceAlpha"/><feGaussianBlur stdDeviation="3" result="c"/><feFlood flood-opacity="0.161"/><feComposite operator="in" in2="c"/><feComposite in="SourceGraphic"/></filter></defs><g class="b"><path class="c" d="M8.453,327.187l-6.71,12.007,6.794-.438,3.054,5.989L18.9,331.867Zm0,0" transform="translate(-1.577 -296.105)"/><path class="d" d="M217.749,327.363l-10.444,4.68L214.6,344.9l3.057-5.989,6.792.438Zm0,0" transform="translate(-187.611 -296.264)"/><path class="e" d="M37.05,18.525a7.082,7.082,0,0,0-3.62-6.185,7.056,7.056,0,0,0-8.721-8.721,7.094,7.094,0,0,0-12.369,0A7.055,7.055,0,0,0,3.62,12.34a7.093,7.093,0,0,0,0,12.369,7.055,7.055,0,0,0,8.721,8.721,7.093,7.093,0,0,0,12.369,0,7.055,7.055,0,0,0,8.721-8.721A7.081,7.081,0,0,0,37.05,18.525Zm0,0"/><path class="f" d="M209.905,24.709a7.055,7.055,0,0,1-8.721,8.721A7.081,7.081,0,0,1,195,37.05V0a7.082,7.082,0,0,1,6.184,3.619,7.056,7.056,0,0,1,8.721,8.721,7.093,7.093,0,0,1,0,12.369Zm0,0" transform="translate(-176.475)"/><path class="f" d="M85.65,73.723A12.825,12.825,0,1,1,72.825,60.9,12.844,12.844,0,0,1,85.65,73.723Zm0,0" transform="translate(-54.3 -55.113)"/><path class="g" d="M207.825,73.723A12.844,12.844,0,0,1,195,86.548V60.9A12.845,12.845,0,0,1,207.825,73.723Zm0,0" transform="translate(-176.475 -55.113)"/><path class="g" d="M143.742,65.645a12.419,12.419,0,0,1,12.078,11.21,13.653,13.653,0,0,0,.1-1.625c0-7.089-5.451-12.835-12.175-12.835s-12.175,5.746-12.175,12.835a13.676,13.676,0,0,0,.1,1.625A12.419,12.419,0,0,1,143.742,65.645Z" transform="translate(-125.867 -56.61)"/><g class="i" transform="matrix(1, 0, 0, 1, 0, 0)"><text class="h" transform="translate(11.05 23)"><tspan x="0" y="0">25</tspan></text></g></g></svg>