<svg xmlns="http://www.w3.org/2000/svg" xmlns:xlink="http://www.w3.org/1999/xlink" width="34.104" height="48.64" viewBox="0 0 34.104 48.64"><defs><style>.a{fill:none;}.b{clip-path:url(#a);}.c{fill:#0093bb;}.d{fill:#005aa5;}.e{fill:#ffd322;}.f{fill:#edbe00;}.g{fill:#daaf00;}.h{fill:#2a2e43;stroke:rgba(0,0,0,0);font-size:13px;font-family:Helvetica-Bold, Helvetica;font-weight:700;}.i{filter:url(#b);}</style><clipPath id="a"><rect class="a" width="34.103" height="48.64"/></clipPath><filter id="b" x="0.104" y="5" width="35" height="33" filterUnits="userSpaceOnUse"><feOffset dy="3" input="SourceAlpha"/><feGaussianBlur stdDeviation="3" result="c"/><feFlood flood-opacity="0.161"/><feComposite operator="in" in2="c"/><feComposite in="SourceGraphic"/></filter></defs><g class="b"><path class="c" d="M184.765,292.109H170.8a1.228,1.228,0,0,0-1.228,1.228V311.77a1.228,1.228,0,0,0,1.73,1.121l6.481-2.9,6.481,2.9a1.228,1.228,0,0,0,1.73-1.121V293.337A1.229,1.229,0,0,0,184.765,292.109Z" transform="translate(-160.731 -264.359)"/><path class="d" d="M262.982,292.109H256v17.885l6.481,2.9a1.228,1.228,0,0,0,1.73-1.121V293.337A1.229,1.229,0,0,0,262.982,292.109Z" transform="translate(-238.948 -264.359)"/><path class="e" d="M109.89,11.633l-3.668-2.761-1.345-4.389a1.811,1.811,0,0,0-1.7-1.28l-4.59-.078L94.918.365A1.811,1.811,0,0,0,92.79.329L89.031,2.964l-4.59-.078A1.806,1.806,0,0,0,82.7,4.108L81.205,8.45l-3.759,2.635a1.811,1.811,0,0,0-.692,2.013L78.1,17.488,76.607,21.83a1.811,1.811,0,0,0,.624,2.035L80.9,26.626l1.345,4.389a1.811,1.811,0,0,0,1.7,1.28l4.59.078L92.2,35.134a1.811,1.811,0,0,0,2.129.036l3.759-2.635,4.59.078a1.812,1.812,0,0,0,1.743-1.222l1.492-4.342,3.759-2.635a1.811,1.811,0,0,0,.692-2.013l-1.345-4.389,1.492-4.342A1.811,1.811,0,0,0,109.89,11.633Z" transform="translate(-76.509 -0.001)"/><g transform="translate(5.23 0.001)"><path class="f" d="M272.329,11.638l-3.668-2.761-1.345-4.389a1.811,1.811,0,0,0-1.7-1.28l-4.59-.078L257.357.37A1.81,1.81,0,0,0,256,.027V35.483a1.806,1.806,0,0,0,.77-.308l3.759-2.635,4.59.078a1.812,1.812,0,0,0,1.743-1.222l1.492-4.342,3.759-2.635A1.811,1.811,0,0,0,272.8,22.4l-1.345-4.389,1.492-4.342A1.811,1.811,0,0,0,272.329,11.638Z" transform="translate(-244.178 -0.006)"/><ellipse class="f" cx="11.821" cy="11.821" rx="11.821" ry="11.821" transform="translate(0 5.926)"/></g><g transform="translate(5.231 5.927)"><path class="g" d="M143.388,65.388a11.823,11.823,0,0,1,11.727,10.324,11.821,11.821,0,1,0-23.454,0A11.823,11.823,0,0,1,143.388,65.388Z" transform="translate(-131.567 -62.395)"/><path class="g" d="M256,62.4V86.037A11.821,11.821,0,1,0,256,62.4Z" transform="translate(-244.178 -62.395)"/></g><g class="i" transform="matrix(1, 0, 0, 1, 0, 0)"><text class="h" transform="translate(10.1 22)"><tspan x="0" y="0">10</tspan></text></g></g></svg>