<?xml version="1.0" encoding="iso-8859-1"?>
<!-- Generator: Adobe Illustrator 19.0.0, SVG Export Plug-In . SVG Version: 6.00 Build 0)  -->
<svg version="1.1" id="Capa_1" xmlns="http://www.w3.org/2000/svg" xmlns:xlink="http://www.w3.org/1999/xlink" x="0px" y="0px"
	 viewBox="0 0 512 512" style="enable-background:new 0 0 512 512;" xml:space="preserve">
<g>
	<g>
		<path d="M505.127,130.228c-4.284-2.762-9.677-3.16-14.32-1.055l-105.451,47.795l-19.024-4.217
			c10.202-31.749,6.194-66.29-11.686-95.361C333.434,42.898,296.557,22.307,256,22.307s-77.434,20.592-98.646,55.083
			c-8.713,14.168-14.124,29.636-16.21,45.446l-12.89-2.857c-3.179-0.705-6.499-0.356-9.462,0.993L8.784,171.062
			C3.434,173.498,0,178.834,0,184.713v282.112c0,5.1,2.591,9.851,6.879,12.612c4.288,2.76,9.685,3.154,14.328,1.043l105.451-47.932
			l257.1,56.792c1.069,0.236,2.153,0.353,3.235,0.353c2.119,0,4.227-0.449,6.181-1.333l110.007-49.746
			c5.369-2.428,8.819-7.775,8.819-13.667V142.835C512,137.738,509.412,132.99,505.127,130.228z M110.007,407.164L30,443.53V194.365
			l80.007-36.43V407.164z M182.907,93.106C198.62,67.559,225.944,52.307,256,52.307c30.056,0,57.38,15.252,73.093,40.799
			c15.496,25.196,16.912,55.943,3.835,82.417L256,292.627l-76.928-117.104C165.996,149.049,167.412,118.302,182.907,93.106z
			 M371.994,456.018l-231.986-51.244V153.312l1.273,0.282c1.742,12.383,5.522,24.6,11.382,36.193
			c0.255,0.505,0.539,0.996,0.85,1.469L228.2,304.947h-5.517c-8.284,0-15,6.716-15,15s6.716,15,15,15h66.636c8.284,0,15-6.716,15-15
			s-6.716-15-15-15h-5.517l68.674-104.539l19.518,4.326V456.018z M482,415.269l-80.007,36.18V202.365L482,166.103V415.269z"/>
	</g>
</g>
<g>
	<g>
		<path d="M256,78.303c-32.311,0-58.598,26.237-58.598,58.486c0,32.249,26.287,58.486,58.598,58.486
			c32.311,0,58.598-26.237,58.598-58.486C314.598,104.54,288.311,78.303,256,78.303z M256,165.275
			c-15.769,0-28.598-12.779-28.598-28.486c0-15.707,12.829-28.486,28.598-28.486c15.769,0,28.598,12.779,28.598,28.486
			C284.598,152.497,271.769,165.275,256,165.275z"/>
	</g>
</g>
<g>
</g>
<g>
</g>
<g>
</g>
<g>
</g>
<g>
</g>
<g>
</g>
<g>
</g>
<g>
</g>
<g>
</g>
<g>
</g>
<g>
</g>
<g>
</g>
<g>
</g>
<g>
</g>
<g>
</g>
</svg>
